<svg width="24" height="24" viewBox="0 0 24 24" fill="none" xmlns="http://www.w3.org/2000/svg">
<rect width="24" height="24" rx="3" fill="#3076B1"/>
<g clip-path="url(#clip0_2942_5138)">
<path d="M17.3725 14.2692C17.0014 15.1468 16.421 15.9202 15.6819 16.5216C14.9429 17.1231 14.0678 17.5344 13.1331 17.7195C12.1984 17.9046 11.2326 17.858 10.3201 17.5836C9.4076 17.3092 8.57621 16.8155 7.89861 16.1456C7.221 15.4757 6.71782 14.65 6.43305 13.7407C6.14828 12.8314 6.09059 11.8662 6.26503 10.9294C6.43946 9.99267 6.84072 9.11291 7.4337 8.36706C8.02669 7.62121 8.79336 7.03198 9.66668 6.65088" stroke="white" stroke-width="1.5" stroke-linecap="round" stroke-linejoin="round"/>
<path d="M17.8333 12C17.8333 11.2339 17.6825 10.4754 17.3893 9.76764C17.0961 9.05991 16.6665 8.41684 16.1248 7.87517C15.5831 7.33349 14.9401 6.90381 14.2323 6.61066C13.5246 6.31751 12.766 6.16663 12 6.16663V12H17.8333Z" stroke="white" stroke-width="1.5" stroke-linecap="round" stroke-linejoin="round"/>
</g>
<defs>
<clipPath id="clip0_2942_5138">
<rect width="14" height="14" fill="white" transform="translate(5 5)"/>
</clipPath>
</defs>
</svg>
