<svg width="24" height="24" viewBox="0 0 24 24" fill="none" xmlns="http://www.w3.org/2000/svg">
<rect width="24" height="24" rx="3" fill="#3076B1"/>
<path d="M17.8333 16.0833C17.8333 16.3928 17.7104 16.6895 17.4916 16.9083C17.2728 17.1271 16.9761 17.25 16.6667 17.25H7.33332C7.0239 17.25 6.72716 17.1271 6.50837 16.9083C6.28957 16.6895 6.16666 16.3928 6.16666 16.0833V7.91667C6.16666 7.60725 6.28957 7.3105 6.50837 7.09171C6.72716 6.87292 7.0239 6.75 7.33332 6.75H10.25L11.4167 8.5H16.6667C16.9761 8.5 17.2728 8.62292 17.4916 8.84171C17.7104 9.0605 17.8333 9.35725 17.8333 9.66667V16.0833Z" stroke="white" stroke-width="1.5" stroke-linecap="round" stroke-linejoin="round"/>
</svg>
