<svg width="6" height="4" viewBox="0 0 6 4" fill="none" xmlns="http://www.w3.org/2000/svg">
<path d="M2.81308 3.90553L0.0713045 0.511125C0.0255335 0.454488 0 0.379241 0 0.300992C0 0.222743 0.0255335 0.147497 0.0713045 0.0908597L0.0744026 0.0872049C0.0965915 0.059653 0.1233 0.0377142 0.152904 0.0227225C0.182507 0.00773072 0.214387 0 0.246603 0C0.278819 0 0.310699 0.00773072 0.340302 0.0227225C0.369906 0.0377142 0.396614 0.059653 0.418803 0.0872049L3.00052 3.28366L5.5812 0.0872049C5.60339 0.059653 5.63009 0.0377142 5.6597 0.0227225C5.6893 0.00773072 5.72118 0 5.7534 0C5.78561 0 5.81749 0.00773072 5.8471 0.0227225C5.8767 0.0377142 5.90341 0.059653 5.9256 0.0872049L5.9287 0.0908597C5.97447 0.147497 6 0.222743 6 0.300992C6 0.379241 5.97447 0.454488 5.9287 0.511125L3.18692 3.90553C3.1628 3.93538 3.1338 3.95915 3.10168 3.97539C3.06955 3.99163 3.03495 4 3 4C2.96505 4 2.93045 3.99163 2.89832 3.97539C2.8662 3.95915 2.8372 3.93538 2.81308 3.90553Z" fill="white"/>
</svg>
