<svg width="23" height="23" viewBox="0 0 23 23" fill="none" xmlns="http://www.w3.org/2000/svg">
<path d="M16.3667 3.5H4.63333C4.35318 3.5 4.07577 3.55587 3.81694 3.66442C3.55811 3.77297 3.32294 3.93207 3.12484 4.13265C2.92674 4.33322 2.7696 4.57134 2.66239 4.8334C2.55518 5.09547 2.5 5.37634 2.5 5.66V19.34C2.5 19.9129 2.72476 20.4623 3.12484 20.8674C3.32294 21.0679 3.55811 21.227 3.81694 21.3356C4.07577 21.4441 4.35318 21.5 4.63333 21.5H16.3667C16.9325 21.5 17.4751 21.2724 17.8752 20.8674C18.2752 20.4623 18.5 19.9129 18.5 19.34V5.66C18.5 5.08713 18.2752 4.53773 17.8752 4.13265C17.4751 3.72757 16.9325 3.5 16.3667 3.5Z" stroke="#8F8F8F" stroke-width="1.5" stroke-miterlimit="10"/>
<path d="M6.5 13H15.5M6.5 10.5H15.5M6.5 15.5H11.9" stroke="#8F8F8F" stroke-width="1.5" stroke-miterlimit="10" stroke-linecap="round"/>
<path d="M13.8 5.5C13.9857 5.5 14.1637 5.44381 14.295 5.34379C14.4262 5.24377 14.5 5.10812 14.5 4.96667V3.5H7.5V4.96667C7.5 5.10812 7.57375 5.24377 7.70503 5.34379C7.8363 5.44381 8.01435 5.5 8.2 5.5H13.8Z" fill="white"/>
<path d="M14.5 3.5V4.96667C14.5 5.10812 14.4262 5.24377 14.295 5.34379C14.1637 5.44381 13.9857 5.5 13.8 5.5H8.2C8.01435 5.5 7.8363 5.44381 7.70503 5.34379C7.57375 5.24377 7.5 5.10812 7.5 4.96667V3.5" stroke="#8F8F8F" stroke-width="1.5" stroke-miterlimit="10" stroke-linecap="round"/>
<path d="M16.3667 3.5H4.63333C4.35318 3.5 4.07577 3.55587 3.81694 3.66442C3.55811 3.77297 3.32294 3.93207 3.12484 4.13265C2.92674 4.33322 2.7696 4.57134 2.66239 4.8334C2.55518 5.09547 2.5 5.37634 2.5 5.66V19.34C2.5 19.9129 2.72476 20.4623 3.12484 20.8674C3.32294 21.0679 3.55811 21.227 3.81694 21.3356C4.07577 21.4441 4.35318 21.5 4.63333 21.5H16.3667C16.9325 21.5 17.4751 21.2724 17.8752 20.8674C18.2752 20.4623 18.5 19.9129 18.5 19.34V5.66C18.5 5.08713 18.2752 4.53773 17.8752 4.13265C17.4751 3.72757 16.9325 3.5 16.3667 3.5Z" stroke="#8F8F8F" stroke-width="2" stroke-miterlimit="10"/>
<path d="M12.5 3.5C12.5 2.96957 12.342 2.46086 12.0607 2.08579C11.7794 1.71071 11.3978 1.5 11 1.5C10.6022 1.5 10.2206 1.71071 9.93934 2.08579C9.65804 2.46086 9.5 2.96957 9.5 3.5" stroke="#8F8F8F" stroke-width="1.5" stroke-miterlimit="10" stroke-linecap="round"/>
</svg>
