<svg width="25" height="23" viewBox="0 0 25 23" fill="none" xmlns="http://www.w3.org/2000/svg">
<path d="M15.3667 3.5H3.6333C3.3532 3.5 3.0758 3.5559 2.8169 3.6644C2.5581 3.773 2.3229 3.9321 2.1248 4.1326C1.9267 4.3332 1.7696 4.5713 1.6624 4.8334C1.5552 5.0955 1.5 5.3763 1.5 5.66V19.34C1.5 19.9129 1.7248 20.4623 2.1248 20.8674C2.3229 21.0679 2.5581 21.227 2.8169 21.3356C3.0758 21.4441 3.3532 21.5 3.6333 21.5H15.3667C15.9325 21.5 16.4751 21.2724 16.8752 20.8674C17.2752 20.4623 17.5 19.9129 17.5 19.34V5.66C17.5 5.0871 17.2752 4.5377 16.8752 4.1326C16.4751 3.7276 15.9325 3.5 15.3667 3.5Z" stroke="#8F8F8F" stroke-width="1.5" stroke-miterlimit="10"/>
<path d="M5.5 13H14.5M5.5 10.5H14.5M5.5 15.5H10.9" stroke="#8F8F8F" stroke-width="1.5" stroke-miterlimit="10" stroke-linecap="round"/>
<path d="M12.8 5.5C12.9857 5.5 13.1637 5.4438 13.295 5.3438C13.4262 5.2438 13.5 5.1081 13.5 4.9667V3.5H6.5V4.9667C6.5 5.1081 6.5738 5.2438 6.705 5.3438C6.8363 5.4438 7.0143 5.5 7.2 5.5H12.8Z" fill="white"/>
<path d="M13.5 3.5V4.9667C13.5 5.1081 13.4262 5.2438 13.295 5.3438C13.1637 5.4438 12.9857 5.5 12.8 5.5H7.2C7.0143 5.5 6.8363 5.4438 6.705 5.3438C6.5738 5.2438 6.5 5.1081 6.5 4.9667V3.5" stroke="#8F8F8F" stroke-width="1.5" stroke-miterlimit="10" stroke-linecap="round"/>
<path d="M15.3667 3.5H3.6333C3.3532 3.5 3.0758 3.5559 2.8169 3.6644C2.5581 3.773 2.3229 3.9321 2.1248 4.1326C1.9267 4.3332 1.7696 4.5713 1.6624 4.8334C1.5552 5.0955 1.5 5.3763 1.5 5.66V19.34C1.5 19.9129 1.7248 20.4623 2.1248 20.8674C2.3229 21.0679 2.5581 21.227 2.8169 21.3356C3.0758 21.4441 3.3532 21.5 3.6333 21.5H15.3667C15.9325 21.5 16.4751 21.2724 16.8752 20.8674C17.2752 20.4623 17.5 19.9129 17.5 19.34V5.66C17.5 5.0871 17.2752 4.5377 16.8752 4.1326C16.4751 3.7276 15.9325 3.5 15.3667 3.5Z" stroke="#8F8F8F" stroke-width="2" stroke-miterlimit="10"/>
<path d="M11.5 3.5C11.5 2.9696 11.342 2.4609 11.0607 2.0858C10.7794 1.71071 10.3978 1.5 10 1.5C9.6022 1.5 9.2206 1.71071 8.9393 2.0858C8.658 2.4609 8.5 2.9696 8.5 3.5" stroke="#8F8F8F" stroke-width="1.5" stroke-miterlimit="10" stroke-linecap="round"/>
<path d="M18 7.6666V16.6666" stroke="#F7F7F7" stroke-width="5" stroke-linecap="round" stroke-linejoin="round"/>
<path d="M14 12H22" stroke="#F7F7F7" stroke-width="5" stroke-linecap="round" stroke-linejoin="round"/>
<path d="M18 7.8095V16.9524" stroke="#8F8F8F" stroke-width="2" stroke-linecap="round" stroke-linejoin="round"/>
<path d="M14 12H22" stroke="#8F8F8F" stroke-width="2" stroke-linecap="round" stroke-linejoin="round"/>
</svg>
