<svg width="24" height="24" viewBox="0 0 24 24" fill="none" xmlns="http://www.w3.org/2000/svg">
<path d="M21.5802 18.7033C21.2342 19.5184 20.8068 20.2956 20.3045 21.0229C19.6335 21.9914 19.0825 22.6607 18.6602 23.0332C18.0042 23.6418 17.2996 23.9549 16.5461 23.9726C16.0064 23.9726 15.3542 23.8173 14.5945 23.5016C13.8323 23.1872 13.1326 23.0332 12.4917 23.0332C11.8207 23.0332 11.101 23.1872 10.3301 23.5016C9.56044 23.8173 8.93822 23.9827 8.46217 23.9979C7.74124 24.0294 7.0203 23.7087 6.30187 23.0332C5.84332 22.6291 5.26982 21.9346 4.58137 20.9522C3.84419 19.9054 3.23821 18.6869 2.76342 17.3017C2.25489 15.8029 2 14.3533 2 12.9491C2 11.3417 2.3436 9.95397 3.03205 8.79228C3.55276 7.87993 4.29718 7.11847 5.1936 6.58127C6.07755 6.04546 7.08663 5.75695 8.11732 5.74535C8.69207 5.74535 9.44549 5.92465 10.3788 6.27821C11.3122 6.63177 11.9119 6.81108 12.173 6.81108C12.3705 6.81108 13.0339 6.60021 14.1634 6.18225C15.2292 5.79459 16.1288 5.63423 16.866 5.69737C18.8651 5.86026 20.3657 6.65577 21.364 8.09021C19.5773 9.18498 18.6939 10.7167 18.7114 12.6827C18.7264 14.2144 19.2774 15.4885 20.357 16.4999C20.8342 16.9615 21.3911 17.3308 22 17.5896C21.8676 17.9773 21.7276 18.3472 21.5802 18.7033ZM16.9984 0.481094C16.9984 1.68067 16.5636 2.80196 15.7003 3.83865C14.6557 5.07106 13.3938 5.78449 12.0256 5.67211C12.0077 5.52127 11.999 5.36946 11.9994 5.21753C11.9994 4.06468 12.4942 2.83227 13.3775 1.82336C13.8173 1.31322 14.3771 0.887688 15.0555 0.549281C15.7327 0.215924 16.3725 0.0315679 16.9747 0C16.9909 0.161627 16.9984 0.321992 16.9984 0.481094Z" fill="#121212"/>
</svg>
