<svg width="25" height="24" viewBox="0 0 25 24" fill="none" xmlns="http://www.w3.org/2000/svg">
<path d="M13.5 19V15H16.5L12.5 10L8.5 15H11.5V19H13.5Z" fill="#7A7B7C"/>
<path d="M7.5 19H9.5V17H7.5C5.846 17 4.5 15.654 4.5 14C4.5 12.596 5.699 11.244 7.173 10.985L7.754 10.883L7.946 10.325C8.649 8.274 10.395 7 12.5 7C15.257 7 17.5 9.243 17.5 12V13H18.5C19.603 13 20.5 13.897 20.5 15C20.5 16.103 19.603 17 18.5 17H15.5V19H18.5C20.706 19 22.5 17.206 22.5 15C22.4985 14.1036 22.1966 13.2336 21.6427 12.5288C21.0888 11.8241 20.3147 11.3253 19.444 11.112C19.007 7.67 16.06 5 12.5 5C9.744 5 7.35 6.611 6.257 9.15C4.109 9.792 2.5 11.82 2.5 14C2.5 16.757 4.743 19 7.5 19Z" fill="#7A7B7C"/>
</svg>
