<svg width="24" height="24" viewBox="0 0 24 24" fill="none" xmlns="http://www.w3.org/2000/svg">
<path d="M3 6H5H21" stroke="#8F8F8F" stroke-width="1.5" stroke-linecap="round" stroke-linejoin="round"/>
<path d="M19 5.99951V19.9995C19 20.5299 18.7893 21.0387 18.4142 21.4137C18.0391 21.7888 17.5304 21.9995 17 21.9995H7C6.46957 21.9995 5.96086 21.7888 5.58579 21.4137C5.21071 21.0387 5 20.5299 5 19.9995V5.99951M8 5.99951V3.99951C8 3.46908 8.21071 2.96037 8.58579 2.5853C8.96086 2.21023 9.46957 1.99951 10 1.99951H14C14.5304 1.99951 15.0391 2.21023 15.4142 2.5853C15.7893 2.96037 16 3.46908 16 3.99951V5.99951" stroke="#8F8F8F" stroke-width="1.5" stroke-linecap="round" stroke-linejoin="round"/>
<path d="M10 10.9995V16.9995" stroke="#8F8F8F" stroke-width="1.5" stroke-linecap="round" stroke-linejoin="round"/>
<path d="M14 10.9995V16.9995" stroke="#8F8F8F" stroke-width="1.5" stroke-linecap="round" stroke-linejoin="round"/>
</svg>
