<svg width="24" height="25" viewBox="0 0 24 25" fill="none" xmlns="http://www.w3.org/2000/svg">
<path d="M7 17.513L11.413 17.498L21.045 7.95799C21.423 7.57999 21.631 7.07799 21.631 6.54399C21.631 6.00999 21.423 5.50799 21.045 5.12999L19.459 3.54399C18.703 2.78799 17.384 2.79199 16.634 3.54099L7 13.083V17.513ZM18.045 4.95799L19.634 6.54099L18.037 8.12299L16.451 6.53799L18.045 4.95799ZM9 13.917L15.03 7.94399L16.616 9.52999L10.587 15.501L9 15.506V13.917Z" fill="#8F8F8F"/>
<path d="M5 21.5H19C20.103 21.5 21 20.603 21 19.5V10.832L19 12.832V19.5H8.158C8.132 19.5 8.105 19.51 8.079 19.51C8.046 19.51 8.013 19.501 7.979 19.5H5V5.5H11.847L13.847 3.5H5C3.897 3.5 3 4.397 3 5.5V19.5C3 20.603 3.897 21.5 5 21.5Z" fill="#8F8F8F"/>
</svg>
