<svg width="24" height="24" viewBox="0 0 24 24" fill="none" xmlns="http://www.w3.org/2000/svg">
<path d="M12 8V13H17V11H14V8H12Z" fill="#8F8F8F"/>
<path d="M21.292 8.49712C20.8409 7.42717 20.1861 6.45514 19.364 5.63512C18.1196 4.39069 16.5377 3.53823 14.814 3.18312C13.6176 2.93961 12.3844 2.93961 11.188 3.18312C9.46267 3.53596 7.87947 4.38912 6.636 5.63612C5.81589 6.45701 5.16133 7.42798 4.708 8.49612C4.23911 9.60473 3.99832 10.7964 4 12.0001L4.001 12.0251H2L5 16.0001L8 12.0251H6.001L6 12.0001C5.99712 10.6055 6.41346 9.2422 7.195 8.08712C7.69912 7.34181 8.34095 6.69964 9.086 6.19512C9.84394 5.68453 10.6941 5.32652 11.589 5.14112C13.4075 4.76723 15.3001 5.13075 16.8507 6.15179C18.4013 7.17283 19.483 8.76782 19.858 10.5861C20.0466 11.518 20.0466 12.4782 19.858 13.4101C19.675 14.3058 19.3168 15.1564 18.804 15.9131C18.554 16.2841 18.267 16.6331 17.95 16.9491C17.3112 17.5872 16.5558 18.0967 15.725 18.4501C15.3018 18.629 14.862 18.7657 14.412 18.8581C13.4804 19.0466 12.5206 19.0466 11.589 18.8581C10.6943 18.6747 9.84447 18.3169 9.088 17.8051C8.71595 17.5537 8.36871 17.2674 8.051 16.9501L6.637 18.3641C7.47212 19.2004 8.46403 19.8637 9.5559 20.316C10.6478 20.7683 11.8181 21.0008 13 21.0001C14.2031 20.9996 15.3939 20.7593 16.503 20.2931C18.1106 19.613 19.486 18.4804 20.462 17.0331C21.4665 15.547 22.0022 13.7938 22 12.0001C22.0025 10.7967 21.7617 9.60514 21.292 8.49712Z" fill="#8F8F8F"/>
</svg>
