<svg width="24" height="24" viewBox="0 0 24 24" fill="none" xmlns="http://www.w3.org/2000/svg">
<g clip-path="url(#clip0_3779_12888)">
<path d="M19.5937 12.5715C19.115 12.444 18.6125 12.375 18.0937 12.375C18.0309 12.375 17.9687 12.3778 17.9062 12.3796C14.8143 12.4779 12.333 14.9897 12.2837 18.0937C12.2831 18.125 12.2812 18.156 12.2812 18.1875C12.2812 18.809 12.3799 19.4072 12.5604 19.9687C13.3127 22.3072 15.5051 24 18.0937 24C21.3039 24 23.9062 21.3977 23.9062 18.1875C23.9062 15.4961 22.0766 13.233 19.5937 12.5715ZM18.0937 22.0312C15.9709 22.0312 14.25 20.3103 14.25 18.1875C14.25 16.0646 15.9709 14.3437 18.0937 14.3437C20.2166 14.3437 21.9375 16.0646 21.9375 18.1875C21.9375 20.3103 20.2165 22.0312 18.0937 22.0312Z" fill="#8F8F8F"/>
<path d="M18.6562 15.5625H17.3438V17.625H15.2812V18.9375H17.3438V21H18.6562V18.9375H20.7187V17.625H18.6562V15.5625Z" fill="#8F8F8F"/>
<path d="M4.96875 4.40624C5.33063 4.40624 5.62498 4.11184 5.62498 3.75V2.15624V0.656235C5.62502 0.294392 5.33063 0 4.96875 0H4.40624C4.04435 0 3.75 0.294392 3.75 0.656235V2.15624V3.75C3.75 4.11188 4.04435 4.40624 4.40624 4.40624H4.96875Z" fill="#8F8F8F"/>
<path d="M15.2812 4.40624C15.6431 4.40624 15.9375 4.11184 15.9375 3.75V2.15624V0.656235C15.9375 0.294392 15.6431 0 15.2812 0H14.7187C14.3569 0 14.0625 0.294392 14.0625 0.656235V2.15624V3.75C14.0625 4.11188 14.3569 4.40624 14.7187 4.40624H15.2812Z" fill="#8F8F8F"/>
<path d="M10.7812 19.4062C10.6898 18.9513 10.6412 18.4813 10.6412 18C10.6412 17.8423 10.6481 17.6863 10.6582 17.5313H2.90622C2.28485 17.5313 1.7812 17.0276 1.7812 16.4063V7.40625H17.9062V10.885C18.0303 10.8786 18.1554 10.875 18.2812 10.875C18.7297 10.875 19.1679 10.9185 19.5937 10.9982V3.65625C19.5937 2.82786 18.9221 2.15625 18.0937 2.15625H16.875V3.75001C16.875 4.62884 16.1601 5.34378 15.2812 5.34378H14.7187C13.8399 5.34378 13.1249 4.62884 13.1249 3.75001V2.15625H6.56249V3.75001C6.56249 4.62884 5.84755 5.34378 4.96873 5.34378H4.40622C3.5274 5.34378 2.81246 4.62884 2.81246 3.75001V2.15625H1.59375C0.765358 2.15625 0.09375 2.82786 0.09375 3.65625V17.9063C0.09375 18.7346 0.765358 19.4062 1.59375 19.4062H10.7812Z" fill="#8F8F8F"/>
<path d="M5.37902 11.7071C6.20103 11.7071 6.86741 11.0408 6.86741 10.2187C6.86741 9.39672 6.20103 8.73035 5.37902 8.73035C4.557 8.73035 3.89062 9.39672 3.89062 10.2187C3.89062 11.0408 4.557 11.7071 5.37902 11.7071Z" fill="#8F8F8F"/>
<path d="M9.84374 11.7071C10.6658 11.7071 11.3321 11.0408 11.3321 10.2187C11.3321 9.39672 10.6658 8.73035 9.84374 8.73035C9.02172 8.73035 8.35535 9.39672 8.35535 10.2187C8.35535 11.0408 9.02172 11.7071 9.84374 11.7071Z" fill="#8F8F8F"/>
<path d="M14.3085 11.7071C15.1305 11.7071 15.7969 11.0408 15.7969 10.2187C15.7969 9.39672 15.1305 8.73035 14.3085 8.73035C13.4865 8.73035 12.8201 9.39672 12.8201 10.2187C12.8201 11.0408 13.4865 11.7071 14.3085 11.7071Z" fill="#8F8F8F"/>
<path d="M9.84376 16.2071C10.6658 16.2071 11.3321 15.5407 11.3321 14.7187C11.3321 13.8967 10.6658 13.2304 9.84376 13.2304C9.02177 13.2304 8.35541 13.8967 8.35541 14.7187C8.35541 15.5407 9.02177 16.2071 9.84376 16.2071Z" fill="#8F8F8F"/>
<path d="M5.37898 16.2071C6.20097 16.2071 6.86733 15.5407 6.86733 14.7187C6.86733 13.8967 6.20097 13.2304 5.37898 13.2304C4.55698 13.2304 3.89062 13.8967 3.89062 14.7187C3.89062 15.5407 4.55698 16.2071 5.37898 16.2071Z" fill="#8F8F8F"/>
</g>
<defs>
<clipPath id="clip0_3779_12888">
<rect width="24" height="24" fill="white"/>
</clipPath>
</defs>
</svg>
