<svg width="24" height="24" viewBox="0 0 24 24" fill="none" xmlns="http://www.w3.org/2000/svg">
<path d="M15 5V9.09134L16.479 9.99148C16.5324 10.0028 16.5877 10.0028 16.6411 9.99148L23 5.84262C22.9954 5.64126 22.9192 5.44759 22.7844 5.29415C22.6496 5.1407 22.4644 5.03683 22.2597 5H15Z" fill="#0072C6"/>
<path d="M15.0008 10.9538L16.3482 12.0894C16.4113 12.1365 16.4838 12.1614 16.5577 12.1614C16.6315 12.1614 16.704 12.1365 16.7671 12.0894C16.5357 12.2606 22.9938 7 22.9938 7V16.5257C23.0107 16.7188 22.9929 16.914 22.9419 17.0977C22.8908 17.2814 22.8076 17.4493 22.6981 17.5894C22.5887 17.7296 22.4556 17.8387 22.3081 17.9092C22.1607 17.9796 22.0025 18.0097 21.8446 17.9973H15L15.0008 10.9538Z" fill="#0072C6"/>
<path d="M6.53089 9.00005C6.30315 8.99867 6.07937 9.07483 5.88324 9.22044C5.68711 9.36605 5.52594 9.5757 5.41682 9.82718C5.11878 10.4938 4.97577 11.2524 5.00414 12.0164C4.97317 12.7788 5.11637 13.5364 5.41682 14.1997C5.52549 14.4408 5.68268 14.6417 5.87261 14.7822C6.06255 14.9226 6.27852 14.9977 6.49884 14.9999C6.71915 15.0022 6.93605 14.9314 7.12773 14.7947C7.31941 14.658 7.47912 14.4603 7.59082 14.2214C7.88799 13.5612 8.02823 12.8075 7.99486 12.0499C8.0289 11.2686 7.89329 10.4903 7.60259 9.79855C7.4987 9.55528 7.34397 9.35233 7.1551 9.2116C6.96623 9.07088 6.75039 8.99773 6.53089 9.00005Z" fill="#0072C6"/>
<path d="M0 2.70429V21.0703L14 24V0L0 2.70429ZM9.36883 14.9923C9.10694 15.3607 8.75871 15.6597 8.3545 15.863C7.9503 16.0663 7.50238 16.1679 7.04982 16.1589C6.60864 16.1667 6.1721 16.0681 5.77732 15.8714C5.38254 15.6747 5.0412 15.3857 4.78233 15.0291C4.16838 14.1737 3.86126 13.1368 3.91055 12.0857C3.85832 10.9831 4.171 9.894 4.80037 8.98629C5.06557 8.6108 5.41926 8.30619 5.83027 8.09931C6.24128 7.89243 6.69697 7.78964 7.15718 7.8C7.59516 7.79123 8.0286 7.88988 8.41945 8.0873C8.81031 8.28473 9.14663 8.57487 9.3989 8.93229C10.0067 9.80626 10.3086 10.8559 10.2578 11.9186C10.3113 13.0132 9.99861 14.0945 9.36883 14.9923Z" fill="#0072C6"/>
</svg>
