<svg width="20" height="20" viewBox="0 0 20 20" fill="none" xmlns="http://www.w3.org/2000/svg">
<g clip-path="url(#clip0_4103_14121)">
<path d="M16.25 11.25C16.25 12.4861 15.8834 13.6945 15.1967 14.7223C14.5099 15.7501 13.5338 16.5512 12.3918 17.0243C11.2497 17.4973 9.99307 17.6211 8.78069 17.3799C7.56831 17.1388 6.45466 16.5435 5.58059 15.6694C4.70651 14.7953 4.11125 13.6817 3.8701 12.4693C3.62894 11.2569 3.75271 10.0003 4.22576 8.85823C4.6988 7.71619 5.49988 6.74007 6.52769 6.05332C7.5555 5.36656 8.76387 5 10 5H13.8638L11.6236 7.24088L12.5 8.125L16.25 4.375L12.5 0.625L11.6236 1.50875L13.8657 3.75H10C8.51664 3.75 7.0666 4.18987 5.83323 5.01398C4.59986 5.83809 3.63856 7.00943 3.07091 8.37988C2.50325 9.75032 2.35472 11.2583 2.64411 12.7132C2.9335 14.168 3.64781 15.5044 4.6967 16.5533C5.7456 17.6022 7.08197 18.3165 8.53683 18.6059C9.99168 18.8953 11.4997 18.7468 12.8701 18.1791C14.2406 17.6114 15.4119 16.6501 16.236 15.4168C17.0601 14.1834 17.5 12.7334 17.5 11.25H16.25Z" fill="#8F8F8F" stroke="#8F8F8F"/>
</g>
<defs>
<clipPath id="clip0_4103_14121">
<rect width="20" height="20" fill="white"/>
</clipPath>
</defs>
</svg>
