<svg width="24" height="24" viewBox="0 0 24 24" fill="none" xmlns="http://www.w3.org/2000/svg">
<path d="M13.724 2H6.66667C5.95942 2 5.28115 2.26339 4.78105 2.73223C4.28095 3.20107 4 3.83696 4 4.5V19.5C4 20.163 4.28095 20.7989 4.78105 21.2678C5.28115 21.7366 5.95942 22 6.66667 22H17.3333C18.0406 22 18.7189 21.7366 19.219 21.2678C19.719 20.7989 20 20.163 20 19.5V7.88375C19.9999 7.55226 19.8594 7.23437 19.6093 7L14.6667 2.36625C14.4167 2.13181 14.0776 2.00007 13.724 2ZM14 6.375V3.875L18 7.625H15.3333C14.9797 7.625 14.6406 7.4933 14.3905 7.25888C14.1405 7.02446 14 6.70652 14 6.375ZM8.64667 10.5988L10.028 15.7787L11.3573 11.21C11.3961 11.0781 11.48 10.9618 11.5961 10.879C11.7122 10.7961 11.8541 10.7512 12 10.7512C12.1459 10.7512 12.2878 10.7961 12.4039 10.879C12.52 10.9618 12.6039 11.0781 12.6427 11.21L13.972 15.7787L15.3533 10.5988C15.3994 10.4413 15.5093 10.307 15.6596 10.2246C15.8099 10.1421 15.9887 10.1181 16.1576 10.1576C16.3266 10.1971 16.4724 10.2971 16.5637 10.436C16.6551 10.575 16.6849 10.742 16.6467 10.9012L14.6467 18.4013C14.6107 18.5351 14.5284 18.654 14.4127 18.7394C14.297 18.8248 14.1544 18.8719 14.0071 18.8734C13.8599 18.8748 13.7163 18.8305 13.5987 18.7473C13.4812 18.6642 13.3963 18.5469 13.3573 18.4137L12 13.7525L10.6427 18.415C10.6037 18.5481 10.5188 18.6654 10.4013 18.7486C10.2837 18.8317 10.1401 18.876 9.99286 18.8746C9.84561 18.8732 9.70301 18.8261 9.58732 18.7407C9.47162 18.6553 9.38935 18.5364 9.35333 18.4025L7.35333 10.9025C7.32984 10.8222 7.3237 10.7383 7.3353 10.6557C7.34689 10.5731 7.37597 10.4935 7.42083 10.4216C7.4657 10.3497 7.52544 10.287 7.59654 10.237C7.66765 10.1871 7.74868 10.151 7.83489 10.1308C7.92109 10.1106 8.01073 10.1068 8.09852 10.1196C8.18632 10.1324 8.2705 10.1615 8.34613 10.2052C8.42176 10.2489 8.48731 10.3064 8.53892 10.3742C8.59053 10.442 8.62716 10.5175 8.64667 10.5988Z" fill="#8F8F8F"/>
</svg>
