<svg width="24" height="24" viewBox="0 0 24 24" fill="none" xmlns="http://www.w3.org/2000/svg">
<g clip-path="url(#clip0_3849_9093)">
<mask id="mask0_3849_9093" style="mask-type:luminance" maskUnits="userSpaceOnUse" x="0" y="-1" width="24" height="25">
<path d="M24 -0.000305176H0V23.9997H24V-0.000305176Z" fill="white"/>
</mask>
<g mask="url(#mask0_3849_9093)">
<path d="M13 3.99976H6C4.89543 3.99976 4 4.89519 4 5.99976V17.9998C4 19.1043 4.89543 19.9998 6 19.9998H13M17 3.99976H18C19.1046 3.99976 20 4.89519 20 5.99976V6.99976M20 16.9998V17.9998C20 19.1043 19.1046 19.9998 18 19.9998H17M20 10.9998V12.9998M12 1.99976V21.9998" stroke="#8F8F8F" stroke-width="2" stroke-linecap="round" stroke-linejoin="round"/>
<path d="M6.005 14L7.6 10.475H8.125L9.72 14H9.07L8.72 13.185H7L6.655 14H6.005ZM7.855 11.17L7.22 12.675H8.5L7.865 11.17H7.855Z" fill="#8F8F8F"/>
<path d="M14.385 14V10.475H15.925C16.295 10.475 16.5817 10.5567 16.785 10.72C16.9883 10.88 17.09 11.1033 17.09 11.39C17.09 11.58 17.0417 11.7433 16.945 11.88C16.8483 12.0167 16.715 12.1167 16.545 12.18C16.745 12.2367 16.9 12.3367 17.01 12.48C17.1233 12.62 17.18 12.7983 17.18 13.015C17.18 13.3283 17.0733 13.5717 16.86 13.745C16.65 13.915 16.3567 14 15.98 14H14.385ZM15 11.97H15.815C16.2517 11.97 16.47 11.8017 16.47 11.465C16.47 11.1283 16.2517 10.96 15.815 10.96H15V11.97ZM15 13.515H15.9C16.34 13.515 16.56 13.3383 16.56 12.985C16.56 12.6317 16.34 12.455 15.9 12.455H15V13.515Z" fill="#8F8F8F"/>
</g>
</g>
<defs>
<clipPath id="clip0_3849_9093">
<rect width="24" height="24" fill="white"/>
</clipPath>
</defs>
</svg>
