<svg width="24" height="24" viewBox="0 0 24 24" fill="none" xmlns="http://www.w3.org/2000/svg">
<rect width="24" height="24" rx="3" fill="#AD7EFB"/>
<path d="M14.9474 10.3421L17.3687 11.5528C17.7373 11.737 17.7373 12.263 17.3687 12.4472L11.8552 15.204C11.7144 15.2744 11.5487 15.2744 11.408 15.204L5.89443 12.4472C5.5259 12.263 5.5259 11.737 5.89443 11.5528L8.31579 10.3421M14.9474 14.0263L17.3687 15.237C17.7373 15.4213 17.7373 15.9472 17.3687 16.1314L11.8552 18.8882C11.7144 18.9586 11.5487 18.9586 11.408 18.8882L5.89443 16.1314C5.5259 15.9472 5.5259 15.4213 5.89443 15.237L8.31579 14.0263M5.89443 8.763L11.408 11.5198C11.5487 11.5902 11.7144 11.5902 11.8552 11.5198L17.3687 8.763C17.7373 8.57874 17.7373 8.05284 17.3687 7.86858L11.8552 5.1118C11.7144 5.04142 11.5487 5.04142 11.408 5.1118L5.89443 7.86858C5.5259 8.05284 5.5259 8.57874 5.89443 8.763Z" stroke="white"/>
</svg>
