<svg width="15" height="9" viewBox="0 0 15 9" fill="none" xmlns="http://www.w3.org/2000/svg">
<path d="M7.48138 8.31106L1.01295 1.52225C0.904965 1.40898 0.844727 1.25848 0.844727 1.10198C0.844727 0.945487 0.904965 0.794995 1.01295 0.68172L1.02026 0.674411C1.07261 0.619307 1.13562 0.575429 1.20546 0.545446C1.2753 0.515462 1.35051 0.5 1.42651 0.5C1.50252 0.5 1.57773 0.515462 1.64757 0.545446C1.71741 0.575429 1.78042 0.619307 1.83277 0.674411L7.92358 7.06732L14.0119 0.674411C14.0643 0.619307 14.1273 0.575429 14.1971 0.545446C14.267 0.515462 14.3422 0.5 14.4182 0.5C14.4942 0.5 14.5694 0.515462 14.6393 0.545446C14.7091 0.575429 14.7721 0.619307 14.8245 0.674411L14.8318 0.68172C14.9398 0.794995 15 0.945487 15 1.10198C15 1.25848 14.9398 1.40898 14.8318 1.52225L8.36333 8.31106C8.30645 8.37077 8.23803 8.4183 8.16223 8.45078C8.08643 8.48325 8.00482 8.5 7.92236 8.5C7.83989 8.5 7.75829 8.48325 7.68249 8.45078C7.60669 8.4183 7.53827 8.37077 7.48138 8.31106Z" fill="#121212"/>
</svg>
