<svg width="24" height="24" viewBox="0 0 24 24" fill="none" xmlns="http://www.w3.org/2000/svg">
<path d="M15.8111 11.5639L9.02225 5.16638C8.90898 5.05958 8.75848 5 8.60198 5C8.44549 5 8.29499 5.05958 8.18172 5.16638L8.17441 5.17361C8.11931 5.22538 8.07543 5.2877 8.04545 5.35677C8.01546 5.42585 8 5.50023 8 5.57541C8 5.65058 8.01546 5.72496 8.04545 5.79404C8.07543 5.86311 8.11931 5.92543 8.17441 5.97721L14.5673 12.0012L8.17441 18.0228C8.11931 18.0746 8.07543 18.1369 8.04544 18.206C8.01546 18.275 8 18.3494 8 18.4246C8 18.4998 8.01546 18.5741 8.04544 18.6432C8.07543 18.7123 8.11931 18.7746 8.17441 18.8264L8.18172 18.8336C8.29499 18.9404 8.44549 19 8.60198 19C8.75848 19 8.90898 18.9404 9.02225 18.8336L15.8111 12.4361C15.8708 12.3799 15.9183 12.3122 15.9508 12.2372C15.9833 12.1623 16 12.0816 16 12C16 11.9184 15.9833 11.8377 15.9508 11.7628C15.9183 11.6878 15.8708 11.6201 15.8111 11.5639Z" fill="#121F2C"/>
</svg>
