<svg width="22" height="21" viewBox="0 0 22 21" fill="none" xmlns="http://www.w3.org/2000/svg">
<path d="M21.5 11V5.75C21.4984 4.3581 20.9448 3.02367 19.9606 2.03944C18.9763 1.05522 17.6419 0.501588 16.25 0.5H0.5V11H5.34875L8.0315 15.0245L8.666 19.4622C8.71857 19.819 8.8973 20.1452 9.16976 20.3814C9.44223 20.6177 9.79036 20.7485 10.151 20.75H11.75C12.3466 20.7494 12.9185 20.5122 13.3403 20.0903C13.7622 19.6685 13.9994 19.0966 14 18.5V14H18.5C19.2953 13.999 20.0578 13.6826 20.6202 13.1202C21.1826 12.5578 21.499 11.7953 21.5 11ZM5 9.5H2V2H5V9.5ZM20 11C19.9994 11.3976 19.8412 11.7788 19.56 12.06C19.2788 12.3412 18.8976 12.4994 18.5 12.5H12.5V18.5C12.5 18.6989 12.421 18.8897 12.2803 19.0303C12.1397 19.171 11.9489 19.25 11.75 19.25H10.1502L9.46775 14.4755L6.5 10.0227V2H16.25C17.2442 2.00119 18.1973 2.39666 18.9003 3.09966C19.6033 3.80267 19.9988 4.7558 20 5.75V11Z" fill="#BCBCBC"/>
</svg>
