<svg width="24" height="24" viewBox="0 0 24 24" fill="none" xmlns="http://www.w3.org/2000/svg">
<rect width="24" height="24" rx="4" fill="#FCEBC0"/>
<path d="M8.8499 13.7999C8.73055 13.7999 8.6161 13.7525 8.5317 13.6681C8.44731 13.5837 8.3999 13.4692 8.3999 13.3499C8.3999 13.2306 8.44731 13.1161 8.5317 13.0317C8.6161 12.9473 8.73055 12.8999 8.8499 12.8999H15.1499C15.2692 12.8999 15.3837 12.9473 15.4681 13.0317C15.5525 13.1161 15.5999 13.2306 15.5999 13.3499C15.5999 13.4692 15.5525 13.5837 15.4681 13.6681C15.3837 13.7525 15.2692 13.7999 15.1499 13.7999H8.8499ZM8.8499 16.4999C8.73055 16.4999 8.6161 16.4525 8.5317 16.3681C8.44731 16.2837 8.3999 16.1692 8.3999 16.0499C8.3999 15.9306 8.44731 15.8161 8.5317 15.7317C8.6161 15.6473 8.73055 15.5999 8.8499 15.5999H15.1499C15.2692 15.5999 15.3837 15.6473 15.4681 15.7317C15.5525 15.8161 15.5999 15.9306 15.5999 16.0499C15.5999 16.1692 15.5525 16.2837 15.4681 16.3681C15.3837 16.4525 15.2692 16.4999 15.1499 16.4999H8.8499Z" fill="#6D4E3D"/>
<path fill-rule="evenodd" clip-rule="evenodd" d="M13.0665 3.8999H7.04995C6.69191 3.8999 6.34853 4.04213 6.09536 4.29531C5.84218 4.54848 5.69995 4.89186 5.69995 5.2499V18.7499C5.69995 19.1079 5.84218 19.4513 6.09536 19.7045C6.34853 19.9577 6.69191 20.0999 7.04995 20.0999H16.95C17.308 20.0999 17.6514 19.9577 17.9045 19.7045C18.1577 19.4513 18.3 19.1079 18.3 18.7499V9.4817C18.2999 9.14373 18.173 8.81808 17.9445 8.5691L14.0619 4.3373C13.9353 4.19937 13.7815 4.08926 13.6101 4.01396C13.4388 3.93866 13.2536 3.89982 13.0665 3.8999ZM6.59995 5.2499C6.59995 5.13056 6.64736 5.0161 6.73175 4.9317C6.81614 4.84731 6.9306 4.7999 7.04995 4.7999H13.0665C13.1289 4.79983 13.1907 4.81276 13.2478 4.83786C13.305 4.86296 13.3563 4.89969 13.3986 4.9457L17.2812 9.1775C17.3574 9.26045 17.3998 9.369 17.4 9.4817V18.7499C17.4 18.8693 17.3525 18.9837 17.2682 19.0681C17.1838 19.1525 17.0693 19.1999 16.95 19.1999H7.04995C6.9306 19.1999 6.81614 19.1525 6.73175 19.0681C6.64736 18.9837 6.59995 18.8693 6.59995 18.7499V5.2499Z" fill="#6D4E3D"/>
<path d="M12.9 9.2999H17.85C17.9693 9.2999 18.0838 9.34731 18.1682 9.4317C18.2526 9.5161 18.3 9.63056 18.3 9.7499C18.3 9.86925 18.2526 9.98371 18.1682 10.0681C18.0838 10.1525 17.9693 10.1999 17.85 10.1999H12.45C12.3307 10.1999 12.2162 10.1525 12.1318 10.0681C12.0474 9.98371 12 9.86925 12 9.7499V4.3499C12 4.23055 12.0474 4.1161 12.1318 4.0317C12.2162 3.94731 12.3307 3.8999 12.45 3.8999C12.5693 3.8999 12.6838 3.94731 12.7682 4.0317C12.8526 4.1161 12.9 4.23055 12.9 4.3499V9.2999Z" fill="#6D4E3D"/>
</svg>
