<svg width="24" height="25" viewBox="0 0 24 25" fill="none" xmlns="http://www.w3.org/2000/svg">
<path d="M12 9.5C12.5523 9.5 13 9.05228 13 8.5C13 7.94772 12.5523 7.5 12 7.5C11.4477 7.5 11 7.94772 11 8.5C11 9.05228 11.4477 9.5 12 9.5Z" stroke="#CCCCCC" stroke-width="2" stroke-linecap="round" stroke-linejoin="round"/>
<path d="M12 16.5C12.5523 16.5 13 16.0523 13 15.5C13 14.9477 12.5523 14.5 12 14.5C11.4477 14.5 11 14.9477 11 15.5C11 16.0523 11.4477 16.5 12 16.5Z" stroke="#CCCCCC" stroke-width="2" stroke-linecap="round" stroke-linejoin="round"/>
<path d="M19 9.5C19.5523 9.5 20 9.05228 20 8.5C20 7.94772 19.5523 7.5 19 7.5C18.4477 7.5 18 7.94772 18 8.5C18 9.05228 18.4477 9.5 19 9.5Z" stroke="#CCCCCC" stroke-width="2" stroke-linecap="round" stroke-linejoin="round"/>
<path d="M19 16.5C19.5523 16.5 20 16.0523 20 15.5C20 14.9477 19.5523 14.5 19 14.5C18.4477 14.5 18 14.9477 18 15.5C18 16.0523 18.4477 16.5 19 16.5Z" stroke="#CCCCCC" stroke-width="2" stroke-linecap="round" stroke-linejoin="round"/>
<path d="M5 9.5C5.55228 9.5 6 9.05228 6 8.5C6 7.94772 5.55228 7.5 5 7.5C4.44772 7.5 4 7.94772 4 8.5C4 9.05228 4.44772 9.5 5 9.5Z" stroke="#CCCCCC" stroke-width="2" stroke-linecap="round" stroke-linejoin="round"/>
<path d="M5 16.5C5.55228 16.5 6 16.0523 6 15.5C6 14.9477 5.55228 14.5 5 14.5C4.44772 14.5 4 14.9477 4 15.5C4 16.0523 4.44772 16.5 5 16.5Z" stroke="#CCCCCC" stroke-width="2" stroke-linecap="round" stroke-linejoin="round"/>
</svg>
