<svg width="14" height="8" viewBox="0 0 14 8" fill="none" xmlns="http://www.w3.org/2000/svg">
<path d="M7.43614 7.81106L13.8336 1.02225C13.9404 0.908977 14 0.758483 14 0.601985C14 0.445487 13.9404 0.294995 13.8336 0.18172L13.8264 0.174411C13.7746 0.119307 13.7123 0.0754294 13.6432 0.0454459C13.5742 0.0154624 13.4998 4.33105e-07 13.4246 4.26534e-07C13.3494 4.19962e-07 13.275 0.0154623 13.206 0.0454458C13.1369 0.0754294 13.0746 0.119307 13.0228 0.174411L6.9988 6.56732L0.977209 0.17441C0.925435 0.119306 0.863115 0.0754283 0.794039 0.0454448C0.724965 0.0154612 0.65058 -6.90206e-07 0.575409 -6.96778e-07C0.500237 -7.0335e-07 0.425852 0.0154612 0.356777 0.0454447C0.287702 0.0754282 0.225383 0.119306 0.173608 0.17441L0.166379 0.181719C0.0595796 0.294994 6.60437e-07 0.445486 6.46755e-07 0.601984C6.33074e-07 0.758482 0.0595795 0.908975 0.166379 1.02225L6.56386 7.81106C6.62012 7.87077 6.68779 7.9183 6.76276 7.95078C6.83773 7.98325 6.91844 8 7 8C7.08156 8 7.16227 7.98325 7.23724 7.95078C7.31221 7.9183 7.37988 7.87077 7.43614 7.81106Z" fill="#121F2C"/>
</svg>
