<svg width="36" height="46" viewBox="0 0 36 46" fill="none" xmlns="http://www.w3.org/2000/svg">
<circle cx="18" cy="23" r="18" fill="#18459D"/>
<path d="M18.96 29.18C17.5333 29.18 16.3133 28.8867 15.3 28.3C14.2867 27.7133 13.5067 26.88 12.96 25.8C12.4267 24.7067 12.16 23.42 12.16 21.94C12.16 20.46 12.4267 19.18 12.96 18.1C13.5067 17.02 14.2867 16.1867 15.3 15.6C16.3133 15.0133 17.5333 14.72 18.96 14.72C19.92 14.72 20.8133 14.8733 21.64 15.18C22.48 15.4733 23.18 15.9 23.74 16.46L23.02 18.12C22.4067 17.5733 21.7733 17.18 21.12 16.94C20.48 16.6867 19.78 16.56 19.02 16.56C17.5 16.56 16.34 17.0267 15.54 17.96C14.74 18.8933 14.34 20.22 14.34 21.94C14.34 23.66 14.74 24.9933 15.54 25.94C16.34 26.8733 17.5 27.34 19.02 27.34C19.78 27.34 20.48 27.22 21.12 26.98C21.7733 26.7267 22.4067 26.3267 23.02 25.78L23.74 27.44C23.18 27.9867 22.48 28.4133 21.64 28.72C20.8133 29.0267 19.92 29.18 18.96 29.18Z" fill="white"/>
</svg>
