<svg width="99" height="100" viewBox="0 0 99 100" fill="none" xmlns="http://www.w3.org/2000/svg">
<path d="M49.9998 0.918457C38.3263 0.9233 27.0313 5.08895 18.1517 12.6646C9.273 20.2451 3.38325 30.7413 1.54681 42.2746C-0.293848 53.8027 2.04087 65.6114 8.12464 75.5748L8.16473 75.6403C8.88773 76.8227 10.4384 77.2008 11.635 76.5015C12.8578 75.7869 13.2634 74.1943 12.513 72.9931C5.02451 60.7239 4.00734 45.568 9.8005 32.4116C15.5888 19.2515 27.4507 9.76176 41.5557 7.00152C55.6656 4.24054 70.2307 8.55636 80.5524 18.5587C90.8744 28.561 95.6507 42.9855 93.3356 57.1735C91.0251 71.3604 81.9141 83.5136 68.9473 89.7186C55.9805 95.9235 40.7955 95.3857 28.2988 88.2849C27.0592 87.5876 25.4714 88.0305 24.763 89.2638C24.0556 90.4955 24.4792 92.0835 25.7171 92.7799C38.9554 100.23 54.9005 101.126 68.8939 95.2066C82.8824 89.2924 93.3505 77.2315 97.2304 62.545C101.115 47.8534 97.9764 32.1985 88.7345 20.1432C79.4926 8.08219 65.1898 0.986657 49.9998 0.918457Z" fill="#8F8F8F"/>
<path d="M43.4651 66.1733C44.1481 66.1733 44.8116 65.9069 45.2961 65.4225L72.4882 38.2339C73.4953 37.227 73.4986 35.5952 72.4955 34.5842C71.4869 33.5675 69.8441 33.5643 68.8314 34.5769L43.464 59.9443L31.1541 47.6376C30.1469 46.6307 28.5142 46.6308 27.5071 47.6379C26.5017 48.6433 26.4997 50.2728 27.5027 51.2806L41.653 65.5001C42.1471 65.9506 42.7967 66.1878 43.4651 66.1733Z" fill="#8F8F8F"/>
</svg>
