<svg width="22" height="21" viewBox="0 0 22 21" fill="none" xmlns="http://www.w3.org/2000/svg">
<g clip-path="url(#clip0_46_97)">
<path d="M18.5 7H14V2.5C13.9994 1.90345 13.7622 1.3315 13.3403 0.909668C12.9185 0.48784 12.3466 0.250596 11.75 0.25H10.1502C9.78961 0.251531 9.44148 0.382298 9.16901 0.61857C8.89655 0.854842 8.71782 1.18096 8.66525 1.53775L8.0315 5.9755L5.34875 10H0.5V20.5H16.25C17.6419 20.4984 18.9763 19.9448 19.9606 18.9606C20.9448 17.9763 21.4984 16.6419 21.5 15.25V10C21.499 9.20465 21.1826 8.44217 20.6202 7.87978C20.0578 7.31738 19.2953 7.00099 18.5 7ZM5 19H2V11.5H5V19ZM20 15.25C19.9988 16.2442 19.6033 17.1973 18.9003 17.9003C18.1973 18.6033 17.2442 18.9988 16.25 19H6.5V10.9772L9.4685 6.5245L10.151 1.75H11.75C11.9489 1.75 12.1397 1.82902 12.2803 1.96967C12.421 2.11032 12.5 2.30109 12.5 2.5V8.5H18.5C18.8976 8.5006 19.2788 8.65882 19.56 8.94C19.8412 9.22117 19.9994 9.60236 20 10V15.25Z" fill="#3076B1"/>
</g>
<defs>
<clipPath id="clip0_46_97">
<rect width="22" height="21" fill="white"/>
</clipPath>
</defs>
</svg>
