<svg width="20" height="20" viewBox="0 0 20 20" fill="none" xmlns="http://www.w3.org/2000/svg">
<path d="M10.8333 6.6665C10.3731 6.6665 10 7.0396 10 7.49984V10.8332H13.3333C13.7936 10.8332 14.1667 10.4601 14.1667 9.99984C14.1667 9.5396 13.7936 9.1665 13.3333 9.1665H11.6667V7.49984C11.6667 7.0396 11.2936 6.6665 10.8333 6.6665Z" fill="#8F8F8F"/>
<path d="M17.7434 7.08102C17.3675 6.18939 16.8218 5.37936 16.1367 4.69602C15.0997 3.65899 13.7815 2.9486 12.3451 2.65269C11.3481 2.44976 10.3204 2.44976 9.32341 2.65269C7.88564 2.94671 6.56631 3.65768 5.53008 4.69685C4.84666 5.38092 4.30119 6.19007 3.92341 7.08019C3.53267 8.00403 3.33201 8.99711 3.33341 10.0002L3.33425 10.021H1.66675L4.16675 13.3335L6.66675 10.021H5.00091L5.00008 10.0002C4.99768 8.838 5.34463 7.70191 5.99591 6.73935C6.41601 6.11826 6.95087 5.58311 7.57175 5.16269C8.20337 4.73719 8.91185 4.43885 9.65758 4.28435C11.173 3.97277 12.7502 4.27571 14.0423 5.12658C15.3345 5.97744 16.2359 7.3066 16.5484 8.82185C16.7056 9.59842 16.7056 10.3986 16.5484 11.1752C16.3959 11.9215 16.0975 12.6304 15.6701 13.261C15.4618 13.5702 15.2226 13.861 14.9584 14.1244C14.4261 14.6561 13.7966 15.0807 13.1042 15.3752C12.7516 15.5243 12.3851 15.6381 12.0101 15.7152C11.2338 15.8723 10.4339 15.8723 9.65758 15.7152C8.91199 15.5623 8.2038 15.2642 7.57342 14.8377C7.4937 14.7838 7.41535 14.728 7.33843 14.6704C6.97015 14.3943 6.44553 14.3889 6.12007 14.7144C5.79462 15.0398 5.79185 15.5716 6.15123 15.8591C6.70074 16.2988 7.3106 16.6597 7.96333 16.9301C8.87322 17.307 9.84854 17.5008 10.8334 17.5002C11.836 17.4998 12.8284 17.2995 13.7526 16.911C15.0923 16.3442 16.2384 15.4004 17.0517 14.1944C17.8888 12.9559 18.3353 11.495 18.3334 10.0002C18.3355 8.99731 18.1348 8.00436 17.7434 7.08102Z" fill="#8F8F8F"/>
</svg>
