<svg width="24" height="24" viewBox="0 0 24 24" fill="none" xmlns="http://www.w3.org/2000/svg">
<path d="M12.0002 22.6666C6.1335 22.6666 1.3335 17.8666 1.3335 11.9999C1.3335 6.13325 6.1335 1.33325 12.0002 1.33325C17.8668 1.33325 22.6668 6.13325 22.6668 11.9999C22.6668 17.8666 17.8668 22.6666 12.0002 22.6666ZM12.0002 2.66659C6.86683 2.66659 2.66683 6.86659 2.66683 11.9999C2.66683 17.1333 6.86683 21.3333 12.0002 21.3333C17.1335 21.3333 21.3335 17.1333 21.3335 11.9999C21.3335 6.86659 17.1335 2.66659 12.0002 2.66659Z" fill="#487F18"/>
<path d="M12.6668 17.3333V9.99992C12.6668 9.59992 12.4002 9.33325 12.0002 9.33325C11.6002 9.33325 11.3335 9.59992 11.3335 9.99992V17.3333C11.3335 17.7333 11.6002 17.9999 12.0002 17.9999C12.4002 17.9999 12.6668 17.7333 12.6668 17.3333Z" fill="#487F18"/>
<path d="M12.6668 7.33333V6.66667C12.6668 6.26667 12.4002 6 12.0002 6C11.6002 6 11.3335 6.26667 11.3335 6.66667V7.33333C11.3335 7.73333 11.6002 8 12.0002 8C12.4002 8 12.6668 7.73333 12.6668 7.33333Z" fill="#487F18"/>
</svg>
