<svg width="24" height="24" viewBox="0 0 24 24" fill="none" xmlns="http://www.w3.org/2000/svg">
<rect width="24" height="24" rx="4" fill="#FCEBC0"/>
<path d="M9.05417 11.4109C9.99833 10.4667 11.645 10.4667 12.5892 11.4109L13.1783 12.0001L14.3567 10.8217L13.7675 10.2326C12.9817 9.44589 11.935 9.01172 10.8217 9.01172C9.70833 9.01172 8.66167 9.44589 7.87583 10.2326L6.1075 12.0001C5.32774 12.7823 4.88989 13.8418 4.88989 14.9463C4.88989 16.0508 5.32774 17.1103 6.1075 17.8926C6.49406 18.2797 6.9533 18.5866 7.45885 18.7957C7.96439 19.0047 8.50626 19.1119 9.05333 19.1109C9.60055 19.112 10.1426 19.005 10.6483 18.7959C11.154 18.5868 11.6134 18.2798 12 17.8926L12.5892 17.3034L11.4108 16.1251L10.8217 16.7142C10.3521 17.1817 9.71639 17.4442 9.05375 17.4442C8.39111 17.4442 7.75544 17.1817 7.28583 16.7142C6.81792 16.2448 6.55517 15.6091 6.55517 14.9463C6.55517 14.2835 6.81792 13.6478 7.28583 13.1784L9.05417 11.4109Z" fill="#149C3A"/>
<path d="M12 6.10745L11.4108 6.69662L12.5891 7.87495L13.1783 7.28579C13.6479 6.81828 14.2836 6.55581 14.9462 6.55581C15.6089 6.55581 16.2445 6.81828 16.7141 7.28579C17.1821 7.75518 17.4448 8.39093 17.4448 9.0537C17.4448 9.71648 17.1821 10.3522 16.7141 10.8216L14.9458 12.5891C14.0016 13.5333 12.355 13.5333 11.4108 12.5891L10.8216 12L9.64331 13.1783L10.2325 13.7675C11.0183 14.5541 12.065 14.9883 13.1783 14.9883C14.2916 14.9883 15.3383 14.5541 16.1241 13.7675L17.8925 12C18.6722 11.2177 19.1101 10.1582 19.1101 9.0537C19.1101 7.94919 18.6722 6.88972 17.8925 6.10745C17.1104 5.32729 16.0509 4.88916 14.9462 4.88916C13.8416 4.88916 12.782 5.32729 12 6.10745Z" fill="#3E04E3"/>
</svg>
