<svg width="22" height="22" viewBox="0 0 22 22" fill="none" xmlns="http://www.w3.org/2000/svg">
<path d="M17.4167 10.0835H4.58333C3.57081 10.0835 2.75 10.9043 2.75 11.9168V18.3335C2.75 19.346 3.57081 20.1668 4.58333 20.1668H17.4167C18.4292 20.1668 19.25 19.346 19.25 18.3335V11.9168C19.25 10.9043 18.4292 10.0835 17.4167 10.0835Z" stroke="#8F8F8F" stroke-width="2" stroke-linecap="round" stroke-linejoin="round"/>
<path d="M6.41602 10.083V6.41634C6.41602 5.20077 6.8989 4.03498 7.75844 3.17544C8.61798 2.31589 9.78377 1.83301 10.9993 1.83301C12.2149 1.83301 13.3807 2.31589 14.2403 3.17544C15.0998 4.03498 15.5827 5.20077 15.5827 6.41634V10.083" stroke="#8F8F8F" stroke-width="2" stroke-linecap="round" stroke-linejoin="round"/>
</svg>
