<svg width="20" height="20" viewBox="0 0 20 20" fill="none" xmlns="http://www.w3.org/2000/svg">
<path d="M15.7713 8.99796V5.77161C15.7713 2.58401 13.1873 0 10.0001 0C6.81256 0 4.22852 2.58401 4.22852 5.77161V8.99796M6.30975 8.99796V5.77161C6.30975 3.73646 7.96537 2.08128 10.0001 2.08128C12.0348 2.08128 13.69 3.7365 13.69 5.77161V8.99796" fill="#D3DAE0"/>
<path d="M10.3368 0.010039C10.2253 0.00363279 10.1132 0 10.0001 0C6.81256 0 4.22852 2.58401 4.22852 5.77161V8.99796H4.90183V5.77161C4.90183 2.69705 7.30592 0.184413 10.3368 0.010039Z" fill="#899EA8"/>
<path d="M10.6733 2.08105C10.5599 2.08105 10.4476 2.08648 10.3367 2.09656C12.2142 2.26719 13.6899 3.84976 13.6899 5.77138V8.99773H14.3632V5.77138C14.3633 3.73628 12.7081 2.08105 10.6733 2.08105Z" fill="#899EA8"/>
<path d="M17.6818 8.99805H2.31812V20.0001H17.6818V8.99805Z" fill="#F79F00"/>
<path d="M3.66471 8.99805H2.31812V20.0001H3.66471V8.99805Z" fill="#E48900"/>
<path d="M11.6528 13.4662C11.6528 12.5534 10.9128 11.8135 10.0001 11.8135C9.08737 11.8135 8.34741 12.5534 8.34741 13.4662C8.34741 14.0948 8.6985 14.6415 9.21522 14.9208L8.94928 16.9551H11.051L10.785 14.9208C11.3018 14.6415 11.6528 14.0949 11.6528 13.4662Z" fill="#3E3D4C"/>
</svg>
