<svg width="20" height="20" viewBox="0 0 20 20" fill="none" xmlns="http://www.w3.org/2000/svg">
<path d="M13.2746 12.0503C14.1219 10.894 14.5013 9.46047 14.3371 8.0364C14.1729 6.61233 13.4771 5.30279 12.389 4.36976C11.3008 3.43673 9.90056 2.94903 8.46831 3.00422C7.03607 3.05942 5.67747 3.65344 4.66433 4.66744C3.65119 5.68145 3.05823 7.04066 3.00407 8.47315C2.9499 9.90563 3.43854 11.3058 4.37222 12.3934C5.30589 13.481 6.61575 14.176 8.03974 14.3392C9.46373 14.5024 10.8968 14.1219 12.0523 13.2737C12.078 13.3087 12.1057 13.3422 12.1372 13.3743L15.5058 16.7434C15.6699 16.9076 15.8924 16.9999 16.1245 17C16.3566 17.0001 16.5793 16.9079 16.7435 16.7439C16.9076 16.5798 16.9999 16.3572 17 16.125C17.0001 15.8929 16.908 15.6702 16.7439 15.506L13.3753 12.1369C13.344 12.1053 13.3104 12.0769 13.2746 12.0503ZM13.5004 8.68647C13.5004 9.31852 13.3759 9.94438 13.1341 10.5283C12.8922 11.1123 12.5378 11.6428 12.0909 12.0898C11.644 12.5367 11.1135 12.8912 10.5297 13.1331C9.94581 13.375 9.32003 13.4995 8.68807 13.4995C8.05611 13.4995 7.43033 13.375 6.84648 13.1331C6.26262 12.8912 5.73211 12.5367 5.28525 12.0898C4.83838 11.6428 4.48391 11.1123 4.24207 10.5283C4.00023 9.94438 3.87575 9.31852 3.87575 8.68647C3.87575 7.40998 4.38276 6.18578 5.28525 5.28316C6.18773 4.38055 7.41177 3.87347 8.68807 3.87347C9.96438 3.87347 11.1884 4.38055 12.0909 5.28316C12.9934 6.18578 13.5004 7.40998 13.5004 8.68647Z" fill="#8F8F8F"/>
</svg>
