<svg width="134" height="74" viewBox="0 0 134 74" fill="none" xmlns="http://www.w3.org/2000/svg">
<g clip-path="url(#clip0_3516_11733)">
<path d="M44.3174 0.499512H123.393C125.879 0.499512 128.153 1.53592 129.813 3.19112C131.468 4.84627 132.504 7.12538 132.504 9.61068V64.396C132.504 66.8813 131.468 69.1552 129.813 70.8155C128.158 72.4707 125.879 73.5071 123.393 73.5071H44.3174C41.8321 73.5071 39.4859 72.4707 37.8308 70.8155C36.1756 69.1604 35.2062 66.8813 35.2062 64.396V9.61068C35.2062 7.12538 36.1704 4.85142 37.8308 3.19112C39.4859 1.53598 41.8319 0.499512 44.3174 0.499512ZM22.9967 51.4225C24.7241 51.4225 26.0338 52.7322 26.0338 54.4595C26.0338 56.1147 24.7241 57.4966 22.9967 57.4966H18.7892C17.0619 57.4966 15.6851 56.1147 15.6851 54.4595C15.6851 52.7322 17.067 51.4225 18.7892 51.4225H22.9967ZM22.9967 16.5098C24.7241 16.5098 26.0338 17.8917 26.0338 19.5469C26.0338 21.2742 24.7241 22.651 22.9967 22.651H3.5373C1.88215 22.651 0.500244 21.2691 0.500244 19.5469C0.500244 17.8917 1.88215 16.5098 3.5373 16.5098H22.9967ZM22.9967 33.9694C24.7241 33.9694 26.0338 35.3513 26.0338 37.0065C26.0338 38.6616 24.7241 40.0435 22.9967 40.0435H11.127C9.47189 40.0435 8.08998 38.6616 8.08998 37.0065C8.08998 35.3513 9.47189 33.9694 11.127 33.9694H22.9967ZM41.2814 14.1642L83.8567 39.7656L126.432 14.1642V9.61121C126.432 8.78105 126.086 8.02312 125.535 7.47136C124.983 6.91963 124.225 6.57417 123.395 6.57417H44.319C43.4888 6.57417 42.7309 6.91963 42.1791 7.47136C41.6274 8.02308 41.2819 8.78105 41.2819 9.61121L41.2814 14.1642ZM126.432 21.2694L85.4446 45.8333C84.4804 46.4521 83.3048 46.4521 82.2684 45.9004L41.2811 21.2692V64.3962C41.2811 65.2264 41.6266 65.9843 42.1783 66.536C42.73 67.0878 43.488 67.4332 44.3182 67.4332H123.394C124.224 67.4332 124.982 67.0878 125.534 66.536C126.086 65.9843 126.431 65.2264 126.431 64.3962L126.432 21.2694Z" fill="#8F8F8F"/>
</g>
<defs>
<clipPath id="clip0_3516_11733">
<rect width="133" height="74" fill="white" transform="translate(0.5)"/>
</clipPath>
</defs>
</svg>
