<svg width="25" height="25" viewBox="0 0 25 25" fill="none" xmlns="http://www.w3.org/2000/svg">
<path d="M20.9141 7.5H3.14532C2.5094 7.5 2 7.05527 2 6.5C2 5.94473 2.50936 5.5 3.14532 5.5H20.9125C21.5484 5.5 22.0578 5.94473 22.0578 6.5C22.0797 7.05523 21.5501 7.5 20.9141 7.5Z" fill="#7A7B7C"/>
<path d="M11.2641 13.5H3.14532C2.5094 13.5 2 13.0553 2 12.5C2 11.9447 2.50936 11.5 3.14532 11.5H11.2641C11.9 11.5 12.4094 11.9447 12.4094 12.5C12.4313 13.0375 11.9219 13.5 11.2641 13.5Z" fill="#7A7B7C"/>
<path d="M15.5045 19.5H3.14532C2.5094 19.5 2 19.0553 2 18.5C2 17.9448 2.50936 17.5 3.14532 17.5H15.4829C16.1188 17.5 16.6282 17.9447 16.6282 18.5C16.6485 19.0552 16.1407 19.5 15.5048 19.5H15.5045Z" fill="#7A7B7C"/>
</svg>
