<svg width="18" height="18" viewBox="0 0 18 18" fill="none" xmlns="http://www.w3.org/2000/svg">
<rect y="18" width="18" height="18" rx="9" transform="rotate(-90 0 18)" fill="white"/>
<path d="M7.87695 12.9375C7.87695 13.5563 8.3832 14.0625 9.00195 14.0625C9.6207 14.0625 10.127 13.5563 10.127 12.9375C10.127 12.3188 9.6207 11.8125 9.00195 11.8125C8.3832 11.8125 7.87695 12.3188 7.87695 12.9375Z" fill="#7A7B7C"/>
<path d="M7.87695 5.06201C7.87695 5.68076 8.3832 6.18701 9.00195 6.18701C9.6207 6.18701 10.127 5.68076 10.127 5.06201C10.127 4.44326 9.6207 3.93701 9.00195 3.93701C8.3832 3.93701 7.87695 4.44326 7.87695 5.06201Z" fill="#7A7B7C"/>
<path d="M7.87695 9C7.87695 9.61875 8.3832 10.125 9.00195 10.125C9.6207 10.125 10.127 9.61875 10.127 9C10.127 8.38125 9.6207 7.875 9.00195 7.875C8.3832 7.875 7.87695 8.38125 7.87695 9Z" fill="#7A7B7C"/>
</svg>
