<svg width="62" height="56" viewBox="0 0 62 56" fill="none" xmlns="http://www.w3.org/2000/svg">
<path d="M14.2092 17.666H10.075C9.30002 17.666 8.78418 18.1819 8.78418 18.9569C8.78418 19.7318 9.30004 20.2477 10.075 20.2477L14.2092 20.2501C14.9842 20.2501 15.5 19.7343 15.5 18.9593C15.5 18.1843 14.9842 17.666 14.2092 17.666V17.666Z" fill="#5E5873"/>
<path d="M27.6408 17.666H23.5067C22.7317 17.666 22.2158 18.1819 22.2158 18.9569C22.2158 19.7318 22.7317 20.2477 23.5067 20.2477H27.6408C28.4158 20.2477 28.9317 19.7318 28.9317 18.9569C28.9341 18.1843 28.2874 17.666 27.6408 17.666Z" fill="#5E5873"/>
<path d="M40.9465 17.666H36.8123C36.0373 17.666 35.5215 18.1819 35.5215 18.9569C35.5215 19.7318 36.0373 20.2477 36.8123 20.2477H40.9465C41.7215 20.2477 42.2373 19.7318 42.2373 18.9569C42.2373 18.1843 41.7215 17.666 40.9465 17.666Z" fill="#5E5873"/>
<path d="M57.9967 19.6033H51.0217V6.3C51.0217 3.32834 48.825 0.875 45.9842 0.875H5.0375C2.19666 0.875 0 3.32834 0 6.3V31.1C0 34.0717 2.19666 36.525 5.0375 36.525H7.10334V48.15C7.10334 49.4408 8.78168 49.8283 9.3 49.0533L22.475 36.525H24.6717V41.6908C24.6717 44.0158 26.4808 45.9533 28.675 45.9533H45.4659L54.7659 54.8658C54.7659 54.8658 56.3159 56.1567 56.9625 53.9625V46.0842H58.125C60.3217 46.0842 62.1284 44.1467 62.1284 41.8217V23.8658C62 21.5408 60.1909 19.6033 57.9966 19.6033H57.9967ZM21.9592 33.9408C21.5717 33.9408 21.3125 34.0692 21.0558 34.3283L9.68998 45.1783V35.3625C9.68998 34.5875 9.17413 34.0717 8.39914 34.0717H5.03756C3.74672 34.0717 2.58422 32.7808 2.58422 31.2308V6.3C2.58422 4.75 3.61597 3.45916 5.03756 3.45916H46.1126C47.4034 3.45916 48.5659 4.75 48.5659 6.3V31.1C48.5659 32.65 47.5318 33.9408 46.1126 33.9408H21.9592ZM59.4159 41.6908C59.4159 42.5942 58.7692 43.3692 57.9942 43.3692L55.5409 43.3716C54.7659 43.3716 54.25 43.8875 54.25 44.6624V50.8624L46.7592 43.7591C46.5 43.5 46.2433 43.3716 45.8558 43.3716H28.675C27.9 43.3716 27.2534 42.5966 27.2534 41.6933V36.5274H46.1125C48.825 36.5274 51.15 34.0741 51.15 31.1024V22.1899H58.125C58.9 22.1899 59.5467 22.9649 59.5467 23.8683V41.6908L59.4159 41.6908Z" fill="#5E5873"/>
</svg>
