<svg width="32" height="35" viewBox="0 0 32 35" fill="none" xmlns="http://www.w3.org/2000/svg">
<path d="M18 19C18 17.4087 17.3679 15.8826 16.2426 14.7574C15.1174 13.6321 13.5913 13 12 13C10.4087 13 8.88258 13.6321 7.75736 14.7574C6.63214 15.8826 6 17.4087 6 19C6 26 3 28 3 28H21C21 28 18 26 18 19Z" stroke="white" stroke-width="2" stroke-linecap="round" stroke-linejoin="round"/>
<path d="M13.73 32C13.5542 32.3031 13.3019 32.5547 12.9982 32.7295C12.6946 32.9044 12.3504 32.9965 12 32.9965C11.6496 32.9965 11.3054 32.9044 11.0018 32.7295C10.6982 32.5547 10.4458 32.3031 10.27 32" stroke="white" stroke-width="2" stroke-linecap="round" stroke-linejoin="round"/>
<circle cx="22" cy="10" r="9" fill="#FF0033" stroke="#3076B1" stroke-width="2"/>
<path d="M22.15 13.09C21.6967 13.09 21.2633 13.0167 20.85 12.87C20.4367 12.7233 20.0867 12.5167 19.8 12.25L20.11 11.6C20.73 12.1067 21.4067 12.36 22.14 12.36C22.6267 12.36 23.01 12.2233 23.29 11.95C23.57 11.6767 23.71 11.3167 23.71 10.87C23.71 10.41 23.5767 10.0333 23.31 9.74C23.0433 9.44667 22.6767 9.3 22.21 9.3C21.5367 9.3 21.0067 9.58 20.62 10.14H20.02V5.95H24.11V6.65H20.83V9.17C21.2167 8.78333 21.7267 8.59 22.36 8.59C22.8 8.59 23.1833 8.68333 23.51 8.87C23.8367 9.05667 24.0867 9.32 24.26 9.66C24.44 9.99333 24.53 10.3833 24.53 10.83C24.53 11.27 24.4333 11.66 24.24 12C24.0467 12.34 23.77 12.6067 23.41 12.8C23.0567 12.9933 22.6367 13.09 22.15 13.09Z" fill="white"/>
</svg>
