<svg width="16" height="16" viewBox="0 0 16 16" fill="none" xmlns="http://www.w3.org/2000/svg">
<path d="M9.41395 7.99997L14.7034 2.70941C15.094 2.31879 15.094 1.68567 14.7034 1.29567C14.3128 0.905045 13.6796 0.905045 13.2896 1.29567L8.0002 6.58623L2.70964 1.29679C2.31902 0.906165 1.6859 0.906165 1.2959 1.29679C0.905274 1.68741 0.905274 2.32053 1.2959 2.71053L6.58646 7.99997L1.29702 13.2905C0.906394 13.6812 0.906394 14.3143 1.29702 14.7043C1.49203 14.8993 1.74827 14.9968 2.00327 14.9968C2.25764 14.9968 2.51452 14.8999 2.70953 14.7043L8.00009 9.41372L13.2907 14.7032C13.6813 15.0938 14.3144 15.0938 14.7044 14.7032C14.8994 14.5081 14.9969 14.2519 14.9969 13.9969C14.9969 13.7419 14.9 13.4857 14.7044 13.2906L9.41395 7.99997Z" fill="#4E4B66"/>
</svg>
