<svg width="23" height="11" viewBox="0 0 23 11" fill="none" xmlns="http://www.w3.org/2000/svg">
<path d="M3.598 10V0.956H3.388L1.484 4.442H0.252L2.59 0.199999H4.732V10H3.598ZM7.61556 10.196C7.3449 10.196 7.11623 10.1073 6.92956 9.93C6.75223 9.75267 6.66356 9.524 6.66356 9.244C6.66356 8.964 6.75223 8.73533 6.92956 8.558C7.11623 8.38067 7.3449 8.292 7.61556 8.292C7.89556 8.292 8.12423 8.38067 8.30156 8.558C8.4789 8.73533 8.56756 8.964 8.56756 9.244C8.56756 9.524 8.4789 9.75267 8.30156 9.93C8.12423 10.1073 7.89556 10.196 7.61556 10.196ZM12.4164 10V0.956H12.2064L10.3024 4.442H9.07036L11.4084 0.199999H13.5504V10H12.4164ZM16.4339 10.196C16.1633 10.196 15.9346 10.1073 15.7479 9.93C15.5706 9.75267 15.4819 9.524 15.4819 9.244C15.4819 8.964 15.5706 8.73533 15.7479 8.558C15.9346 8.38067 16.1633 8.292 16.4339 8.292C16.7139 8.292 16.9426 8.38067 17.1199 8.558C17.2973 8.73533 17.3859 8.964 17.3859 9.244C17.3859 9.524 17.2973 9.75267 17.1199 9.93C16.9426 10.1073 16.7139 10.196 16.4339 10.196ZM21.2347 10V0.956H21.0247L19.1207 4.442H17.8887L20.2267 0.199999H22.3687V10H21.2347Z" fill="#121212"/>
</svg>
