<svg width="24" height="25" viewBox="0 0 24 25" fill="none" xmlns="http://www.w3.org/2000/svg">
<rect y="0.5" width="24" height="24" rx="12" fill="white"/>
<path d="M12 13.25C12.4142 13.25 12.75 12.9142 12.75 12.5C12.75 12.0858 12.4142 11.75 12 11.75C11.5858 11.75 11.25 12.0858 11.25 12.5C11.25 12.9142 11.5858 13.25 12 13.25Z" fill="#8F8F8F" stroke="#8F8F8F" stroke-width="2" stroke-linecap="round" stroke-linejoin="round"/>
<path d="M17.25 13.25C17.6642 13.25 18 12.9142 18 12.5C18 12.0858 17.6642 11.75 17.25 11.75C16.8358 11.75 16.5 12.0858 16.5 12.5C16.5 12.9142 16.8358 13.25 17.25 13.25Z" fill="#8F8F8F" stroke="#8F8F8F" stroke-width="2" stroke-linecap="round" stroke-linejoin="round"/>
<path d="M6.75 13.25C7.16421 13.25 7.5 12.9142 7.5 12.5C7.5 12.0858 7.16421 11.75 6.75 11.75C6.33579 11.75 6 12.0858 6 12.5C6 12.9142 6.33579 13.25 6.75 13.25Z" fill="#8F8F8F" stroke="#8F8F8F" stroke-width="2" stroke-linecap="round" stroke-linejoin="round"/>
</svg>
