<svg width="24" height="24" viewBox="0 0 24 24" fill="none" xmlns="http://www.w3.org/2000/svg">
<rect width="24" height="24" rx="4" fill="#FCEBC0"/>
<path d="M8.88922 14.2334C8.73589 14.2334 8.63256 14.2484 8.57922 14.2634V15.2451C8.64256 15.2601 8.72172 15.2642 8.83089 15.2642C9.23006 15.2642 9.47589 15.0626 9.47589 14.7217C9.47589 14.4167 9.26422 14.2334 8.88922 14.2334ZM11.7951 14.2434C11.6284 14.2434 11.5201 14.2584 11.4559 14.2734V16.4484C11.5201 16.4634 11.6234 16.4634 11.7167 16.4634C12.3976 16.4684 12.8409 16.0934 12.8409 15.3001C12.8459 14.6084 12.4417 14.2434 11.7951 14.2434Z" fill="#DE5041"/>
<path d="M13.6667 3.66675H7.00004C6.55801 3.66675 6.13409 3.84234 5.82153 4.1549C5.50897 4.46746 5.33337 4.89139 5.33337 5.33341V18.6667C5.33337 19.1088 5.50897 19.5327 5.82153 19.8453C6.13409 20.1578 6.55801 20.3334 7.00004 20.3334H17C17.4421 20.3334 17.866 20.1578 18.1786 19.8453C18.4911 19.5327 18.6667 19.1088 18.6667 18.6667V8.66675L13.6667 3.66675ZM9.91504 15.4917C9.65754 15.7334 9.27754 15.8417 8.83504 15.8417C8.74924 15.8427 8.66348 15.8377 8.57837 15.8267V17.0151H7.83337V13.7351C8.16959 13.6849 8.50931 13.6621 8.84921 13.6667C9.31337 13.6667 9.64337 13.7551 9.86587 13.9326C10.0775 14.1009 10.2209 14.3767 10.2209 14.7017C10.22 15.0284 10.1117 15.3042 9.91504 15.4917ZM13.0875 16.6209C12.7375 16.9117 12.205 17.0501 11.5542 17.0501C11.1642 17.0501 10.8884 17.0251 10.7009 17.0001V13.7359C11.0372 13.6868 11.3768 13.6637 11.7167 13.6667C12.3475 13.6667 12.7575 13.7801 13.0775 14.0217C13.4234 14.2784 13.64 14.6876 13.64 15.2751C13.64 15.9109 13.4075 16.3501 13.0875 16.6209ZM16.1667 14.3084H14.89V15.0676H16.0834V15.6792H14.89V17.0159H14.135V13.6917H16.1667V14.3084ZM13.6667 9.50008H12.8334V5.33341L17 9.50008H13.6667Z" fill="#DE5041"/>
</svg>
