<svg width="16" height="16" viewBox="0 0 16 16" fill="none" xmlns="http://www.w3.org/2000/svg">
<rect width="16" height="16" rx="3" fill="#AD7EFB"/>
<path fill-rule="evenodd" clip-rule="evenodd" d="M4.2002 4.1602C4.2002 3.90559 4.30134 3.66141 4.48137 3.48137C4.66141 3.30134 4.90559 3.2002 5.1602 3.2002H10.9202C11.1748 3.2002 11.419 3.30134 11.599 3.48137C11.7791 3.66141 11.8802 3.90559 11.8802 4.1602V11.8402C11.8802 12.0948 11.7791 12.339 11.599 12.519C11.419 12.6991 11.1748 12.8002 10.9202 12.8002H5.1602C4.90559 12.8002 4.66141 12.6991 4.48137 12.519C4.30134 12.339 4.2002 12.0948 4.2002 11.8402V4.1602ZM10.9202 4.1602H5.1602V11.8402H10.9202V4.1602ZM6.1202 6.5602C6.1202 6.43289 6.17077 6.3108 6.26078 6.22078C6.3508 6.13077 6.47289 6.0802 6.6002 6.0802H9.4802C9.6075 6.0802 9.72959 6.13077 9.81961 6.22078C9.90962 6.3108 9.9602 6.43289 9.9602 6.5602C9.9602 6.6875 9.90962 6.80959 9.81961 6.89961C9.72959 6.98962 9.6075 7.0402 9.4802 7.0402H6.6002C6.47289 7.0402 6.3508 6.98962 6.26078 6.89961C6.17077 6.80959 6.1202 6.6875 6.1202 6.5602ZM6.6002 8.4802C6.47289 8.4802 6.3508 8.53077 6.26078 8.62078C6.17077 8.7108 6.1202 8.83289 6.1202 8.9602C6.1202 9.0875 6.17077 9.20959 6.26078 9.29961C6.3508 9.38962 6.47289 9.4402 6.6002 9.4402H8.0402C8.1675 9.4402 8.28959 9.38962 8.37961 9.29961C8.46962 9.20959 8.5202 9.0875 8.5202 8.9602C8.5202 8.83289 8.46962 8.7108 8.37961 8.62078C8.28959 8.53077 8.1675 8.4802 8.0402 8.4802H6.6002Z" fill="white"/>
</svg>
