<svg width="24" height="25" viewBox="0 0 24 25" fill="none" xmlns="http://www.w3.org/2000/svg">
<path d="M14 11.5H22V13.5H14V11.5ZM8 4.49996C7.47134 4.48765 6.94569 4.58269 6.45482 4.77935C5.96395 4.97601 5.51807 5.2702 5.14415 5.64411C4.77024 6.01803 4.47605 6.46391 4.27939 6.95478C4.08273 7.44565 3.98768 7.97131 4 8.49996C3.98768 9.02862 4.08273 9.55428 4.27939 10.0451C4.47605 10.536 4.77024 10.9819 5.14415 11.3558C5.51807 11.7297 5.96395 12.0239 6.45482 12.2206C6.94569 12.4172 7.47134 12.5123 8 12.5C8.52866 12.5123 9.05431 12.4172 9.54518 12.2206C10.0361 12.0239 10.4819 11.7297 10.8558 11.3558C11.2298 10.9819 11.524 10.536 11.7206 10.0451C11.9173 9.55428 12.0123 9.02862 12 8.49996C12.0123 7.97131 11.9173 7.44565 11.7206 6.95478C11.524 6.46391 11.2298 6.01803 10.8558 5.64411C10.4819 5.2702 10.0361 4.97601 9.54518 4.77935C9.05431 4.58269 8.52866 4.48765 8 4.49996ZM8 10.5C7.73395 10.5128 7.46815 10.4699 7.21968 10.3739C6.9712 10.278 6.74554 10.1311 6.5572 9.94276C6.36885 9.75442 6.22198 9.52876 6.12602 9.28029C6.03007 9.03181 5.98714 8.76601 6 8.49996C5.98714 8.23391 6.03007 7.96811 6.12602 7.71964C6.22198 7.47116 6.36885 7.24551 6.5572 7.05716C6.74554 6.86881 6.9712 6.72195 7.21968 6.62599C7.46815 6.53003 7.73395 6.4871 8 6.49996C8.26605 6.4871 8.53185 6.53003 8.78032 6.62599C9.0288 6.72195 9.25446 6.86881 9.4428 7.05716C9.63115 7.24551 9.77802 7.47116 9.87398 7.71964C9.96993 7.96811 10.0129 8.23391 10 8.49996C10.0129 8.76601 9.96993 9.03181 9.87398 9.28029C9.77802 9.52876 9.63115 9.75442 9.4428 9.94276C9.25446 10.1311 9.0288 10.278 8.78032 10.3739C8.53185 10.4699 8.26605 10.5128 8 10.5ZM4 18.5C4 17.7043 4.31607 16.9412 4.87868 16.3786C5.44129 15.816 6.20435 15.5 7 15.5H9C9.79565 15.5 10.5587 15.816 11.1213 16.3786C11.6839 16.9412 12 17.7043 12 18.5V19.5H14V18.5C14 17.8434 13.8707 17.1932 13.6194 16.5865C13.3681 15.9799 12.9998 15.4287 12.5355 14.9644C12.0712 14.5001 11.52 14.1318 10.9134 13.8806C10.3068 13.6293 9.65661 13.5 9 13.5H7C5.67392 13.5 4.40215 14.0267 3.46447 14.9644C2.52678 15.9021 2 17.1739 2 18.5V19.5H4V18.5Z" fill="#8F8F8F"/>
</svg>
