<svg width="24" height="24" viewBox="0 0 24 24" fill="none" xmlns="http://www.w3.org/2000/svg">
<rect width="24" height="24" rx="3" fill="#FFDF36"/>
<path fill-rule="evenodd" clip-rule="evenodd" d="M6 6.4C6 6.0287 6.1475 5.6726 6.41005 5.41005C6.6726 5.1475 7.0287 5 7.4 5H15.8C16.1713 5 16.5274 5.1475 16.79 5.41005C17.0525 5.6726 17.2 6.0287 17.2 6.4V17.6C17.2 17.9713 17.0525 18.3274 16.79 18.5899C16.5274 18.8525 16.1713 19 15.8 19H7.4C7.0287 19 6.6726 18.8525 6.41005 18.5899C6.1475 18.3274 6 17.9713 6 17.6V6.4ZM15.8 6.4H7.4V17.6H15.8V6.4ZM8.8 9.9C8.8 9.71435 8.87375 9.5363 9.00503 9.40503C9.1363 9.27375 9.31435 9.2 9.5 9.2H13.7C13.8857 9.2 14.0637 9.27375 14.195 9.40503C14.3263 9.5363 14.4 9.71435 14.4 9.9C14.4 10.0857 14.3263 10.2637 14.195 10.395C14.0637 10.5262 13.8857 10.6 13.7 10.6H9.5C9.31435 10.6 9.1363 10.5262 9.00503 10.395C8.87375 10.2637 8.8 10.0857 8.8 9.9ZM9.5 12.7C9.31435 12.7 9.1363 12.7737 9.00503 12.905C8.87375 13.0363 8.8 13.2143 8.8 13.4C8.8 13.5857 8.87375 13.7637 9.00503 13.895C9.1363 14.0262 9.31435 14.1 9.5 14.1H11.6C11.7857 14.1 11.9637 14.0262 12.095 13.895C12.2263 13.7637 12.3 13.5857 12.3 13.4C12.3 13.2143 12.2263 13.0363 12.095 12.905C11.9637 12.7737 11.7857 12.7 11.6 12.7H9.5Z" fill="#121212"/>
</svg>
