<svg width="24" height="24" viewBox="0 0 24 24" fill="none" xmlns="http://www.w3.org/2000/svg">
<rect width="24" height="24" rx="3" fill="#3076B1"/>
<path d="M17.3333 6H6.66665C5.93131 6 5.33331 6.598 5.33331 7.33333V14.6667C5.33331 15.402 5.93131 16 6.66665 16H9.33331L8.13331 17.6L9.19998 18.4L11 16H13L14.8 18.4L15.8666 17.6L14.6666 16H17.3333C18.0686 16 18.6666 15.402 18.6666 14.6667V7.33333C18.6666 6.598 18.0686 6 17.3333 6ZM6.66665 14.6667V7.33333H17.3333L17.334 14.6667H6.66665Z" fill="white"/>
<path d="M8 12H10.6667V13.3333H8V12Z" fill="white"/>
</svg>
