<svg width="24" height="24" viewBox="0 0 24 24" fill="none" xmlns="http://www.w3.org/2000/svg">
<rect width="24" height="24" rx="3" fill="#3076B1"/>
<path d="M7.52135 12.0427C7.23602 12.2614 7.04135 12.4487 6.93802 12.61C6.83469 12.77 6.77202 12.942 6.75202 13.122H8.53802V12.6234H7.60869C7.66269 12.5694 7.71002 12.5227 7.75002 12.4894C7.79135 12.456 7.87135 12.3947 7.99069 12.3094C8.19269 12.164 8.33135 12.0294 8.40802 11.9067C8.48535 11.7827 8.52335 11.6567 8.52335 11.5214C8.52517 11.4 8.49007 11.281 8.42269 11.18C8.35654 11.078 8.26067 10.9986 8.14802 10.9527C8.03202 10.902 7.86869 10.8787 7.65935 10.8787C7.45935 10.8787 7.30135 10.904 7.18869 10.9547C7.08017 11.0018 6.98823 11.0803 6.92469 11.18C6.86202 11.2754 6.81869 11.4107 6.79535 11.5827L7.39135 11.6334C7.40802 11.508 7.44069 11.422 7.48935 11.3707C7.51376 11.3466 7.54286 11.3277 7.57486 11.3154C7.60686 11.303 7.64107 11.2973 7.67535 11.2987C7.74869 11.2987 7.80869 11.322 7.85669 11.3707C7.88006 11.3927 7.89855 11.4194 7.91096 11.4491C7.92336 11.4787 7.9294 11.5106 7.92869 11.5427C7.92457 11.6143 7.89954 11.6832 7.85669 11.7407C7.80735 11.8087 7.69602 11.91 7.52135 12.0427ZM7.55802 16.3C7.48861 16.3022 7.42111 16.2771 7.37002 16.23C7.32069 16.1834 7.28469 16.1 7.26202 15.978L6.66669 16.0567C6.70602 16.1927 6.76135 16.3047 6.83402 16.394C6.90669 16.4827 6.99935 16.5507 7.11202 16.598C7.22402 16.644 7.37802 16.6667 7.57335 16.6667C7.77335 16.6667 7.93402 16.6354 8.05669 16.5734C8.17558 16.514 8.27402 16.4204 8.33935 16.3047C8.40469 16.188 8.43669 16.0687 8.43669 15.942C8.43913 15.8512 8.41897 15.7612 8.37802 15.68C8.33864 15.6087 8.28145 15.5487 8.21202 15.506C8.15254 15.4721 8.08825 15.4474 8.02135 15.4327C8.11319 15.3861 8.19217 15.3177 8.25135 15.2334C8.30172 15.1578 8.32799 15.0688 8.32669 14.978C8.32792 14.9019 8.31167 14.8265 8.2792 14.7576C8.24672 14.6887 8.19888 14.6282 8.13935 14.5807C8.01469 14.4747 7.81269 14.422 7.53335 14.422C7.29002 14.422 7.10135 14.47 6.96869 14.568C6.83535 14.6634 6.74602 14.8034 6.69935 14.9854L7.26202 15.086C7.27735 14.978 7.30669 14.9034 7.35069 14.8607C7.39469 14.818 7.45135 14.7954 7.52202 14.7954C7.55141 14.794 7.58077 14.7986 7.60836 14.8088C7.63596 14.819 7.66123 14.8346 7.68269 14.8547C7.72202 14.8947 7.74069 14.9474 7.74069 15.0134C7.74069 15.0827 7.71535 15.142 7.66269 15.1934C7.61002 15.2447 7.54469 15.268 7.46735 15.268C7.44145 15.2673 7.41561 15.2648 7.39002 15.2607L7.36002 15.6934C7.42234 15.6726 7.48711 15.66 7.55269 15.656C7.64069 15.656 7.71069 15.6834 7.76135 15.74C7.81269 15.7947 7.83802 15.8727 7.83802 15.9747C7.83802 16.072 7.81135 16.152 7.75869 16.2107C7.73367 16.2392 7.70278 16.2619 7.66814 16.2774C7.6335 16.2928 7.59593 16.3005 7.55802 16.3ZM8.19002 9.57804V7.33337H7.69735C7.63713 7.46787 7.54734 7.58705 7.43469 7.68204C7.32269 7.77671 7.16535 7.85671 6.96269 7.92537V8.42804C7.19059 8.36518 7.40318 8.25627 7.58735 8.10804V9.57871H8.19002V9.57804ZM10 8.00004H17.3334V9.33337H10V8.00004ZM10 11.3334H17.3334V12.6667H10V11.3334ZM10 14.6667H17.3334V16H10V14.6667Z" fill="white"/>
</svg>
