<svg width="24" height="24" viewBox="0 0 24 24" fill="none" xmlns="http://www.w3.org/2000/svg">
<rect width="24" height="24" rx="3" fill="#3076B1"/>
<path d="M17.25 6H6.74998C5.96865 6 5.33331 6.598 5.33331 7.33333V16.6667C5.33331 17.402 5.96865 18 6.74998 18H17.25C18.0313 18 18.6666 17.402 18.6666 16.6667V7.33333C18.6666 6.598 18.0313 6 17.25 6ZM17.25 16.6667H6.74998C6.71198 16.6667 6.68598 16.656 6.67465 16.656C6.66998 16.656 6.66731 16.6573 6.66665 16.6613L6.65865 7.364C6.66331 7.35733 6.69331 7.33333 6.74998 7.33333H17.25C17.3026 7.334 17.3313 7.352 17.3333 7.33867L17.3413 16.636C17.3366 16.6427 17.3066 16.6667 17.25 16.6667Z" fill="white"/>
<path d="M8 8.66663H12V12.6666H8V8.66663ZM12.6667 14H8V15.3333H16V14H13.3333H12.6667ZM13.3333 11.3333H16V12.6666H13.3333V11.3333ZM13.3333 8.66663H16V9.99996H13.3333V8.66663Z" fill="white"/>
</svg>
