<svg width="24" height="24" viewBox="0 0 24 24" fill="none" xmlns="http://www.w3.org/2000/svg">
<rect width="24" height="24" rx="3" fill="#3076B1"/>
<path d="M17.3334 6.66663H8.00002C7.26469 6.66663 6.66669 7.26463 6.66669 7.99996V11.3333H8.00002V9.33329L12.2667 12.5333C12.3821 12.6197 12.5225 12.6665 12.6667 12.6665C12.8109 12.6665 12.9512 12.6197 13.0667 12.5333L17.3334 9.33329V15.3333H12V16.6666H17.3334C18.0687 16.6666 18.6667 16.0686 18.6667 15.3333V7.99996C18.6667 7.26463 18.0687 6.66663 17.3334 6.66663ZM12.6667 11.1666L8.44402 7.99996H16.8894L12.6667 11.1666Z" fill="white"/>
<path d="M5.33331 12H9.99998V13.3333H5.33331V12ZM6.66665 14H10.6666V15.3333H6.66665V14ZM8.66665 16H11.3333V17.3333H8.66665V16Z" fill="white"/>
</svg>
