<svg width="24" height="24" viewBox="0 0 24 24" fill="none" xmlns="http://www.w3.org/2000/svg">
<rect width="24" height="24" rx="3" fill="#3076B1"/>
<path fill-rule="evenodd" clip-rule="evenodd" d="M10.1977 7.15155V7.50232C8.40453 8.23767 7.15171 10.6529 7.19717 12.7462L7.19716 13.9088C6.27918 15.0889 6.33319 16.8485 8.62343 16.8485H10.1977C10.1977 17.3307 10.3857 17.7932 10.7202 18.1342C11.0546 18.4752 11.5083 18.6667 11.9814 18.6667C12.4544 18.6667 12.9081 18.4752 13.2426 18.1342C13.577 17.7932 13.765 17.3307 13.765 16.8485H15.3436C17.6295 16.8485 17.6626 15.0852 16.7448 13.9051L16.7703 12.7478C16.8165 10.6521 15.5612 8.23467 13.765 7.50037V7.15155C13.765 6.66934 13.577 6.20688 13.2426 5.86591C12.9081 5.52493 12.4544 5.33337 11.9814 5.33337C11.5083 5.33337 11.0546 5.52493 10.7202 5.86591C10.3857 6.20688 10.1977 6.66934 10.1977 7.15155ZM12.5759 7.15155C12.5759 7.15155 12.5755 7.17613 12.5748 7.18835C12.3812 7.16406 12.1839 7.15155 11.9838 7.15155C11.782 7.15155 11.5831 7.16427 11.388 7.18894C11.3872 7.17653 11.3868 7.16406 11.3868 7.15155C11.3868 6.99082 11.4494 6.83667 11.561 6.72301C11.6724 6.60935 11.8237 6.54549 11.9814 6.54549C12.139 6.54549 12.2902 6.60935 12.4018 6.72301C12.5132 6.83667 12.5759 6.99082 12.5759 7.15155ZM11.3868 16.8485C11.3868 17.0092 11.4494 17.1634 11.561 17.2771C11.6724 17.3907 11.8237 17.4546 11.9814 17.4546C12.139 17.4546 12.2902 17.3907 12.4018 17.2771C12.5132 17.1634 12.5759 17.0092 12.5759 16.8485H11.3868ZM15.3436 15.6364C15.8516 15.6364 16.1256 15.029 15.795 14.6359C15.6344 14.4449 15.5488 14.2019 15.5544 13.9524L15.5815 12.7206C15.6269 10.6628 14.0029 8.36367 11.9838 8.36367C9.96508 8.36367 8.34128 10.662 8.38596 12.7193L8.41275 13.9526C8.41817 14.202 8.3326 14.445 8.17202 14.6359C7.84145 15.029 8.11548 15.6364 8.62343 15.6364H15.3436ZM15.3199 6.13472C15.5296 5.83213 15.945 5.75687 16.2476 5.96663C17.0128 6.49701 17.9304 7.76903 18.4314 9.27511C18.5476 9.62447 18.3586 10.0019 18.0092 10.1181C17.6598 10.2343 17.2824 10.0453 17.1662 9.69597C16.7261 8.37303 15.948 7.3813 15.488 7.06243C15.1854 6.85267 15.1102 6.43732 15.3199 6.13472ZM7.62018 5.96663C7.92278 5.75687 8.33812 5.83213 8.54788 6.13472C8.75764 6.43732 8.68238 6.85267 8.37978 7.06243C7.91977 7.3813 7.14169 8.37303 6.70159 9.69597C6.58537 10.0453 6.20794 10.2343 5.85857 10.1181C5.50921 10.0019 5.32021 9.62447 5.43643 9.27511C5.93744 7.76903 6.85505 6.49701 7.62018 5.96663Z" fill="white"/>
</svg>
