<svg width="24" height="24" viewBox="0 0 24 24" fill="none" xmlns="http://www.w3.org/2000/svg">
<rect width="24" height="24" rx="3" fill="#3076B1"/>
<path d="M15.95 11.3333V11.3833H16H18C18.1635 11.3833 18.3204 11.4483 18.436 11.564C18.5517 11.6796 18.6166 11.8365 18.6166 12V16C18.6166 17.0751 17.7417 17.95 16.6666 17.95H7.33331C6.25826 17.95 5.38331 17.0751 5.38331 16V6.66667C5.38331 6.50312 5.44828 6.34626 5.56393 6.23062C5.67958 6.11497 5.83643 6.05 5.99998 6.05H15.3333C15.4969 6.05 15.6537 6.11497 15.7694 6.23062C15.885 6.34626 15.95 6.50312 15.95 6.66667V11.3333ZM6.66665 7.28333H6.61665V7.33333V16C6.61665 16.1901 6.69215 16.3724 6.82655 16.5068C6.96095 16.6412 7.14324 16.7167 7.33331 16.7167H14.7806H14.8513L14.8278 16.65C14.7563 16.4472 14.7166 16.2282 14.7166 16V7.33333V7.28333H14.6666H6.66665ZM16 12.6167H15.95V12.6667V16C15.95 16.1901 16.0255 16.3724 16.1599 16.5068C16.2943 16.6412 16.4766 16.7167 16.6666 16.7167C16.8567 16.7167 17.039 16.6412 17.1734 16.5068C17.3078 16.3724 17.3833 16.1901 17.3833 16V12.6667V12.6167H17.3333H16Z" fill="white" stroke="#3076B1" stroke-width="0.1"/>
<path d="M8.05 8.71669H13.2833V9.95002H8.05V8.71669ZM8.05 11.3834H13.2833V12.6167H8.05V11.3834ZM11.3833 14.05H13.2833V15.2834H11.3833V14.05Z" fill="white" stroke="#3076B1" stroke-width="0.1"/>
</svg>
