<svg width="24" height="24" viewBox="0 0 24 24" fill="none" xmlns="http://www.w3.org/2000/svg">
<rect width="24" height="24" rx="3" fill="#3076B1"/>
<path d="M17.138 13.8047C17.2312 13.7114 17.2947 13.5927 17.3204 13.4634C17.3461 13.3341 17.3329 13.2 17.2824 13.0782C17.232 12.9564 17.1466 12.8523 17.037 12.7791C16.9273 12.7058 16.7985 12.6667 16.6666 12.6667H12V14H15.0573L12.1953 16.862C12.1021 16.9552 12.0386 17.074 12.0129 17.2033C11.9872 17.3326 12.0004 17.4666 12.0509 17.5884C12.1013 17.7102 12.1867 17.8143 12.2963 17.8876C12.4059 17.9609 12.5348 18 12.6666 18H17.3333V16.6667H14.276L17.138 13.8047ZM8.66665 6.66H7.33331V14.66H5.33331L7.99998 17.3267L10.6666 14.66H8.66665V6.66ZM15.3333 6H14C13.722 6 13.4733 6.17267 13.3753 6.43267L11.542 11.3213H12.9666L13.462 10H15.8706L16.366 11.3207H17.7906L15.9573 6.432C15.9096 6.30508 15.8243 6.19573 15.7128 6.11854C15.6013 6.04135 15.4689 6 15.3333 6ZM13.962 8.66667L14.462 7.33333H14.8706L15.3706 8.66667H13.962Z" fill="white"/>
</svg>
