<svg width="24" height="24" viewBox="0 0 24 24" fill="none" xmlns="http://www.w3.org/2000/svg">
<rect width="24" height="24" rx="3" fill="#3076B1"/>
<g clip-path="url(#clip0_3679_53040)">
<path d="M10.0975 8.56395L10.0981 8.56451C10.3032 8.36057 10.5497 8.20313 10.821 8.10287C11.0919 8.00277 11.3811 7.962 11.669 7.98333C12.3318 7.99671 12.964 8.26434 13.435 8.73088C14.4151 9.67741 14.5938 11.1757 13.7695 12.0345M10.0975 8.56395L13.7333 12M10.0975 8.56395L10.0924 8.57122C10.0418 8.64333 9.97627 8.70374 9.90031 8.74839C9.82435 8.79305 9.7397 8.8209 9.65206 8.83008C9.56442 8.83926 9.47584 8.82956 9.39227 8.80162C9.3087 8.77368 9.23209 8.72815 9.1676 8.66811C9.10311 8.60806 9.05224 8.5349 9.0184 8.45353C8.98457 8.37217 8.96857 8.2845 8.97148 8.19644C8.97438 8.10837 8.99613 8.02195 9.03525 7.94299C9.07437 7.86404 9.12996 7.79438 9.19827 7.73872L9.19856 7.73909L9.20325 7.73405C9.51945 7.39484 9.90736 7.13047 10.3387 6.9602C10.77 6.78993 11.2339 6.71807 11.6966 6.74984L11.6966 6.74992L11.6994 6.74996C12.2348 6.75676 12.7623 6.88021 13.2451 7.11171L13.3315 7.15313L13.316 7.05857C13.2658 6.75044 13.2865 6.4349 13.3768 6.13602C13.4669 5.83749 13.6239 5.56346 13.8359 5.33478M10.0975 8.56395L13.8359 5.33478M13.7695 12.0345C13.7695 12.0345 13.7694 12.0346 13.7694 12.0346L13.7333 12M13.7695 12.0345C13.7695 12.0345 13.7695 12.0345 13.7695 12.0345L13.7333 12M13.7695 12.0345C13.6541 12.1554 13.5897 12.3161 13.5897 12.4833C13.5897 12.6492 13.6531 12.8088 13.7669 12.9294M13.7333 12C13.609 12.1302 13.5397 12.3033 13.5397 12.4833C13.5397 12.6633 13.609 12.8364 13.7333 12.9666M13.7669 12.9294C13.7659 12.9286 13.7649 12.9278 13.7639 12.9271L13.7333 12.9666M13.7669 12.9294C13.892 13.025 14.044 13.0789 14.2014 13.0833L14.2016 13.0833C14.282 13.0859 14.3619 13.0708 14.4358 13.0391C14.5098 13.0075 14.5758 12.96 14.6294 12.9L14.6308 12.8985L14.6308 12.8985C15.6797 11.8168 15.7808 10.2079 15.056 8.85693L15.0164 8.78329H15.1H15.3333H15.334V8.7833C15.6072 8.78669 15.8783 8.73357 16.1301 8.62726C16.3818 8.52095 16.6089 8.36376 16.7971 8.16554L16.7972 8.16544C17.1722 7.77256 17.3759 7.24693 17.3637 6.70396C17.3515 6.16118 17.1245 5.64542 16.7325 5.26982M13.7669 12.9294C13.7678 12.9303 13.7686 12.9312 13.7695 12.9321L13.7333 12.9666M13.7333 12.9666L16.7325 5.26982M16.7325 5.26982C16.7327 5.26995 16.7328 5.27008 16.733 5.27021L16.7667 5.23329M16.7325 5.26982L16.8333 8.19996C17.2175 7.7975 17.4262 7.25905 17.4137 6.70283C17.4012 6.14662 17.1685 5.61809 16.7667 5.23329M16.7325 5.26982C16.3496 4.92024 15.8516 4.7234 15.3332 4.71663M16.7325 5.26982L15.3336 4.71663C15.3335 4.71663 15.3333 4.71663 15.3332 4.71663M16.7325 5.26982C16.7324 5.26968 16.7322 5.26954 16.7321 5.26941L16.7667 5.23329M16.7325 5.26982L16.7667 5.23329M15.3332 4.71663C14.7726 4.7196 14.2353 4.94142 13.8359 5.33478M15.3332 4.71663L13.8359 5.33478M14.7666 7.33715C14.921 7.47784 15.1235 7.554 15.3323 7.54999C15.4406 7.55671 15.549 7.53752 15.6485 7.49401C15.7478 7.45055 15.8354 7.38407 15.9039 7.3001C15.9784 7.22485 16.0369 7.13528 16.0758 7.03679C16.115 6.9375 16.1335 6.83124 16.1302 6.72454C16.1268 6.61784 16.1017 6.51294 16.0564 6.4163C16.0111 6.31989 15.9467 6.23372 15.8671 6.16305C15.7227 6.02702 15.532 5.95086 15.3336 5.94996L15.3335 5.94996C15.2217 5.94969 15.1111 5.97144 15.0077 6.01398C14.9044 6.05652 14.8105 6.11901 14.7314 6.19788L14.7313 6.198C14.6559 6.27362 14.5968 6.36385 14.5576 6.46313C14.5184 6.56242 14.4999 6.66868 14.5032 6.77538C14.5065 6.88208 14.5316 6.98698 14.577 7.08362C14.6223 7.18016 14.6868 7.26643 14.7666 7.33715ZM14.7666 7.33715C14.7665 7.33707 14.7664 7.33699 14.7663 7.3369L14.8 7.29996M14.7666 7.33715C14.7667 7.33723 14.7668 7.33731 14.7669 7.33739L14.8 7.29996M14.8 7.29996C14.7252 7.23371 14.6647 7.15286 14.6222 7.06239C14.5798 6.97191 14.5563 6.87371 14.5532 6.77382C14.5501 6.67393 14.5674 6.57445 14.6041 6.4815C14.6408 6.38855 14.6961 6.30409 14.7667 6.23329L15.8667 7.26663C15.8029 7.34533 15.7212 7.4076 15.6284 7.4482C15.5356 7.4888 15.4344 7.50655 15.3333 7.49996C15.1365 7.50426 14.9455 7.43264 14.8 7.29996Z" fill="white" stroke="#3076B1" stroke-width="0.1"/>
<path d="M11.1205 16.8483L11.1205 16.8485L11.1248 16.8493C11.2056 16.8633 11.2825 16.8942 11.3505 16.94C11.4185 16.9857 11.4762 17.0453 11.5196 17.1148C11.5631 17.1844 11.5914 17.2623 11.6027 17.3435C11.614 17.4247 11.6081 17.5073 11.5853 17.5861L11.5853 17.5861L11.5849 17.5875C11.55 17.7232 11.4698 17.8429 11.3577 17.927C11.2457 18.0111 11.1083 18.0545 10.9682 18.05L10.9682 18.05H10.9667H10.8401C10.1377 17.8548 9.51506 17.4421 9.0617 16.871C8.60695 16.2981 8.34603 15.5955 8.31662 14.8647L8.3126 14.7645L8.23502 14.828C7.87778 15.12 7.43122 15.2807 6.96986 15.2833L6.47565 15.2174C6.21413 15.1565 5.96741 15.0439 5.74998 14.8863C5.5319 14.7282 5.34769 14.5281 5.20823 14.2977C5.06877 14.0672 4.97687 13.8112 4.93797 13.5447C4.89907 13.2782 4.91394 13.0066 4.98172 12.7459L4.98173 12.7459L4.98189 12.7452C5.09088 12.3007 5.34552 11.9054 5.70524 11.6223C6.06402 11.34 6.50674 11.1855 6.96321 11.1834L7.42392 11.2492C7.73091 11.3233 8.01663 11.4673 8.25879 11.6701C8.50155 11.8733 8.69393 12.13 8.82086 12.4201L8.86128 12.5124L8.91034 12.4243C9.26731 11.7836 9.82102 11.2747 10.4896 10.973C11.1581 10.6713 11.9059 10.5927 12.6225 10.7488C12.7004 10.7665 12.7739 10.8 12.8384 10.8473C12.9029 10.8946 12.957 10.9547 12.9973 11.0238C13.0377 11.0929 13.0633 11.1695 13.0727 11.249C13.0822 11.3285 13.0751 11.409 13.0521 11.4856L13.052 11.4856L13.0513 11.4888C13.0331 11.5678 12.9995 11.6424 12.9525 11.7084C12.9055 11.7744 12.8459 11.8305 12.7771 11.8734C12.7084 11.9164 12.6319 11.9454 12.552 11.9587C12.4723 11.9721 12.3907 11.9696 12.312 11.9515C11.143 11.6426 9.95581 12.571 9.61823 13.8876C9.27953 15.2085 9.95533 16.5399 11.1205 16.8483ZM7.7488 13.4109L7.74885 13.4109L7.74921 13.4089C7.78632 13.2024 7.74874 12.9895 7.64321 12.8082L7.64318 12.8081C7.58977 12.7167 7.51761 12.6376 7.43143 12.576C7.34525 12.5144 7.24701 12.4718 7.14318 12.451L7.14337 12.45H7.13333H6.96725C6.77839 12.4456 6.59384 12.5069 6.44506 12.6233C6.29612 12.7399 6.19225 12.9045 6.15119 13.0891L6.15119 13.0891L6.15104 13.0898C6.10813 13.2967 6.14703 13.5121 6.25959 13.6909C6.37214 13.8696 6.54959 13.9978 6.75466 14.0485L6.7543 14.05H6.76666H6.96666V14.05L6.96764 14.05C7.15064 14.0464 7.32712 13.9815 7.46878 13.8656C7.61043 13.7497 7.70905 13.5895 7.7488 13.4109Z" fill="white" stroke="#3076B1" stroke-width="0.1"/>
<path d="M17.4718 15.2587L17.3961 15.3105L17.4806 15.3461C17.8662 15.5083 18.193 15.7846 18.417 16.1379C18.641 16.4912 18.7516 16.9045 18.7339 17.3225C18.7162 17.7404 18.571 18.143 18.3179 18.476C18.0648 18.8091 17.7159 19.0568 17.3179 19.1858L17.3173 19.186C17.1292 19.2495 16.9322 19.2824 16.7336 19.2833C16.3586 19.2774 15.9923 19.1686 15.6748 18.9689C15.3572 18.7692 15.1004 18.486 14.9326 18.1504C14.7648 17.8147 14.6923 17.4395 14.7231 17.0654C14.7539 16.6914 14.8867 16.3331 15.1071 16.0294L15.1657 15.9488L15.066 15.95C14.3334 15.9592 13.6168 15.7349 13.0201 15.3095C12.4237 14.8843 11.978 14.2804 11.7477 13.585C11.7245 13.5063 11.7172 13.4237 11.7264 13.3422C11.7355 13.2603 11.7609 13.1812 11.8012 13.1093C11.8414 13.0375 11.8956 12.9744 11.9606 12.9239C12.0256 12.8733 12.1001 12.8363 12.1796 12.815L12.1796 12.815L12.1809 12.8146C12.2598 12.7912 12.3427 12.7839 12.4245 12.793C12.5063 12.8022 12.5855 12.8276 12.6574 12.8678C12.7292 12.9081 12.7923 12.9623 12.8428 13.0273C12.8934 13.0923 12.9304 13.1667 12.9517 13.2463L12.9517 13.2463L12.9522 13.2478C13.2951 14.3796 14.6605 15.0209 15.9813 14.6145C16.6106 14.4226 17.1515 14.014 17.5081 13.4613C17.6741 13.2259 17.7849 12.9561 17.8322 12.672C17.8796 12.3876 17.8622 12.0961 17.7813 11.8193L17.7813 11.8193L17.7811 11.8185C17.7327 11.6631 17.7476 11.4949 17.8227 11.3505C17.8977 11.2062 18.0266 11.0975 18.1814 11.0478C18.2602 11.0245 18.3428 11.0172 18.4245 11.0263C18.5063 11.0355 18.5855 11.0609 18.6574 11.1012C18.7292 11.1414 18.7923 11.1956 18.8428 11.2606C18.8934 11.3256 18.9304 11.4001 18.9517 11.4796L18.9517 11.4796L18.952 11.4807C19.082 11.926 19.114 12.3942 19.0461 12.8531C18.9781 13.312 18.8116 13.7508 18.5581 14.1393L18.5579 14.1397C18.2745 14.5817 17.9052 14.9623 17.4718 15.2587ZM16.9667 18.0167H16.9739L16.9808 18.0146C17.1782 17.9567 17.3449 17.8233 17.4449 17.6434C17.5448 17.4637 17.5699 17.2518 17.5149 17.0536C17.4685 16.8815 17.3669 16.7294 17.2259 16.6204C17.0849 16.5114 16.912 16.4516 16.7338 16.45H16.7333H16.5333H16.5247L16.5165 16.4529C16.3135 16.5253 16.144 16.6695 16.0399 16.8582C15.9357 17.0469 15.9042 17.2672 15.9512 17.4776L15.9505 17.4777L15.9537 17.4854C16.0166 17.641 16.1242 17.7745 16.2628 17.869C16.4015 17.9635 16.565 18.0149 16.7328 18.0167H16.7333H16.9667Z" fill="white" stroke="#3076B1" stroke-width="0.1"/>
</g>
<defs>
<clipPath id="clip0_3679_53040">
<rect width="16" height="16" fill="white" transform="translate(4 4)"/>
</clipPath>
</defs>
</svg>
