<svg width="24" height="24" viewBox="0 0 24 24" fill="none" xmlns="http://www.w3.org/2000/svg">
<rect width="24" height="24" rx="3" fill="#3076B1"/>
<path d="M16.6667 5.33331H7.33333C6.598 5.33331 6 5.93131 6 6.66665V17.3333C6 18.0686 6.598 18.6666 7.33333 18.6666H16.6667C17.402 18.6666 18 18.0686 18 17.3333V6.66665C18 5.93131 17.402 5.33331 16.6667 5.33331ZM7.33333 17.3333V6.66665H16.6667L16.6673 17.3333H7.33333Z" fill="white"/>
<path d="M8.71669 12.05H9.95002V13.2833H8.71669V12.05ZM8.71669 14.7167H9.95002V15.95H8.71669V14.7167ZM11.3834 12.05H12.6167V13.2833H11.3834V12.05ZM8.71669 8.05H15.2834V10.6167H8.71669V8.05ZM11.3834 14.7167H12.6167V15.95H11.3834V14.7167ZM14.05 12.05H15.2834V15.95H14.05V12.05Z" fill="white" stroke="#3076B1" stroke-width="0.1"/>
</svg>
