<svg width="8" height="14" viewBox="0 0 8 14" fill="none" xmlns="http://www.w3.org/2000/svg">
<path d="M7.81106 6.56386L1.02225 0.166377C0.908977 0.0595775 0.758483 -6.33074e-07 0.601985 -6.46755e-07C0.445487 -6.60437e-07 0.294995 0.0595775 0.18172 0.166377L0.174411 0.173605C0.119307 0.22538 0.0754294 0.287699 0.0454459 0.356774C0.0154624 0.425849 4.33105e-07 0.500235 4.26534e-07 0.575406C4.19962e-07 0.650577 0.0154623 0.724963 0.0454458 0.794038C0.0754294 0.863112 0.119307 0.925432 0.174411 0.977206L6.56732 7.0012L0.17441 13.0228C0.119306 13.0746 0.0754283 13.1369 0.0454448 13.206C0.0154612 13.275 -6.90206e-07 13.3494 -6.96778e-07 13.4246C-7.0335e-07 13.4998 0.0154612 13.5741 0.0454447 13.6432C0.0754282 13.7123 0.119306 13.7746 0.17441 13.8264L0.181719 13.8336C0.294994 13.9404 0.445486 14 0.601984 14C0.758482 14 0.908975 13.9404 1.02225 13.8336L7.81106 7.43614C7.87077 7.37988 7.9183 7.31221 7.95078 7.23724C7.98325 7.16227 8 7.08156 8 7C8 6.91844 7.98325 6.83773 7.95078 6.76276C7.9183 6.68779 7.87077 6.62012 7.81106 6.56386Z" fill="#121F2C"/>
</svg>
