<svg width="8" height="16" viewBox="0 0 8 16" fill="none" xmlns="http://www.w3.org/2000/svg">
<path d="M7.81106 8.44098L1.02225 14.9094C0.908977 15.0174 0.758483 15.0776 0.601985 15.0776C0.445487 15.0776 0.294995 15.0174 0.18172 14.9094L0.174411 14.9021C0.119307 14.8498 0.0754294 14.7867 0.0454459 14.7169C0.0154624 14.6471 4.76837e-07 14.5719 4.76837e-07 14.4958C4.76837e-07 14.4198 0.0154624 14.3446 0.0454459 14.2748C0.0754294 14.205 0.119307 14.1419 0.174411 14.0896L6.56732 7.99879L0.174411 1.91042C0.119307 1.85807 0.0754294 1.79506 0.0454459 1.72522C0.0154624 1.65538 4.76837e-07 1.58017 4.76837e-07 1.50416C4.76837e-07 1.42816 0.0154624 1.35295 0.0454459 1.2831C0.0754294 1.21326 0.119307 1.15025 0.174411 1.0979L0.18172 1.09059C0.294995 0.982611 0.445487 0.922371 0.601985 0.922371C0.758483 0.922371 0.908977 0.982611 1.02225 1.09059L7.81106 7.55903C7.87077 7.61591 7.9183 7.68433 7.95078 7.76013C7.98325 7.83593 8 7.91754 8 8C8 8.08247 7.98325 8.16408 7.95078 8.23988C7.9183 8.31568 7.87077 8.38409 7.81106 8.44098Z" fill="#121212"/>
</svg>
