<svg width="16" height="16" viewBox="0 0 16 16" fill="none" xmlns="http://www.w3.org/2000/svg">
<path d="M12.6667 7.3335H3.33333C2.59695 7.3335 2 7.93045 2 8.66683V13.3335C2 14.0699 2.59695 14.6668 3.33333 14.6668H12.6667C13.403 14.6668 14 14.0699 14 13.3335V8.66683C14 7.93045 13.403 7.3335 12.6667 7.3335Z" fill="#D9D9D9" stroke="#8F8F8F" stroke-width="1.5" stroke-linecap="round" stroke-linejoin="round"/>
<path d="M4.66602 7.33301V4.66634C4.66602 3.78229 5.01721 2.93444 5.64233 2.30932C6.26745 1.6842 7.11529 1.33301 7.99935 1.33301C8.8834 1.33301 9.73125 1.6842 10.3564 2.30932C10.9815 2.93444 11.3327 3.78229 11.3327 4.66634V7.33301" stroke="#8F8F8F" stroke-width="1.5" stroke-linecap="round" stroke-linejoin="round"/>
</svg>
