<svg width="21" height="24" viewBox="0 0 21 24" fill="none" xmlns="http://www.w3.org/2000/svg">
<path d="M2.47462 16.2514C1.69817 18.3771 1.25448 19.8315 1.03264 20.6146C0.367115 23.2997 -0.0765697 23.8591 2.25277 22.6285C4.58212 21.3978 15.5633 15.1326 18.1145 13.7901C21.3312 12 21.3312 12.1119 17.8927 10.2099C15.3415 8.64365 4.36028 2.60221 2.3637 1.37155C0.367115 0.140884 0.478036 0.700276 1.03264 3.38536C1.25448 4.28039 1.69817 5.73481 2.47462 7.74862C3.02922 9.20304 4.24936 10.3218 5.80225 10.5456L12.2357 11.7762C12.3466 11.7762 12.3466 11.8881 12.3466 11.8881C12.3466 11.8881 12.3466 12 12.2357 12L5.80225 13.2307C4.36028 13.6782 3.02922 14.6851 2.47462 16.2514Z" fill="white"/>
</svg>
