<svg width="24" height="24" viewBox="0 0 24 24" fill="none" xmlns="http://www.w3.org/2000/svg">
<path d="M10.501 8.2501C10.3081 8.23535 10.1286 8.1456 10.001 8.0001L8.001 6.0001L6.001 8.0001C5.94929 8.10837 5.87235 8.20266 5.77666 8.27504C5.68097 8.34742 5.5693 8.39579 5.45105 8.41608C5.33279 8.43637 5.21139 8.42799 5.09704 8.39164C4.98269 8.3553 4.87873 8.29205 4.79389 8.20721C4.70905 8.12237 4.6458 8.01841 4.60945 7.90406C4.57311 7.78971 4.56473 7.66831 4.58502 7.55005C4.60531 7.43179 4.65368 7.32013 4.72606 7.22444C4.79844 7.12874 4.89272 7.05181 5.001 7.0001L7.501 4.5001C7.64162 4.35965 7.83224 4.28076 8.031 4.28076C8.22975 4.28076 8.42037 4.35965 8.561 4.5001L11.001 7.0001C11.124 7.13761 11.192 7.31562 11.192 7.5001C11.192 7.68458 11.124 7.8626 11.001 8.0001C10.8734 8.1456 10.6939 8.23535 10.501 8.2501Z" fill="#696E79"/>
<path d="M8 19.75C7.80189 19.7474 7.61263 19.6676 7.47253 19.5275C7.33244 19.3874 7.25259 19.1981 7.25 19L7.25 5C7.25 4.80109 7.32902 4.61032 7.46967 4.46967C7.61032 4.32902 7.80109 4.25 8 4.25C8.19891 4.25 8.38968 4.32902 8.53033 4.46967C8.67098 4.61032 8.75 4.80109 8.75 5V19C8.74741 19.1981 8.66756 19.3874 8.52747 19.5275C8.38737 19.6676 8.19811 19.7474 8 19.75Z" fill="#696E79"/>
<path d="M16.001 19.75C15.9025 19.7505 15.8048 19.7313 15.7138 19.6935C15.6228 19.6557 15.5402 19.6001 15.471 19.53L13.001 17C12.8927 16.9483 12.7984 16.8714 12.7261 16.7757C12.6537 16.68 12.6053 16.5683 12.585 16.4501C12.5647 16.3318 12.5731 16.2104 12.6095 16.0961C12.6458 15.9817 12.709 15.8778 12.7939 15.7929C12.8787 15.7081 12.9827 15.6448 13.097 15.6085C13.2114 15.5721 13.3328 15.5638 13.451 15.584C13.5693 15.6043 13.681 15.6527 13.7767 15.7251C13.8724 15.7975 13.9493 15.8917 14.001 16L16.001 18L18.001 16C18.0527 15.8917 18.1296 15.7975 18.2253 15.7251C18.321 15.6527 18.4327 15.6043 18.5509 15.584C18.6692 15.5638 18.7906 15.5721 18.905 15.6085C19.0193 15.6448 19.1233 15.7081 19.2081 15.7929C19.2929 15.8778 19.3562 15.9817 19.3925 16.0961C19.4289 16.2104 19.4373 16.3318 19.417 16.4501C19.3967 16.5683 19.3483 16.68 19.2759 16.7757C19.2036 16.8714 19.1093 16.9483 19.001 17L16.501 19.5C16.3734 19.6455 16.1939 19.7353 16.001 19.75Z" fill="#696E79"/>
<path d="M16 19.75C15.8019 19.7474 15.6126 19.6676 15.4725 19.5275C15.3324 19.3874 15.2526 19.1981 15.25 19L15.25 5C15.25 4.80109 15.329 4.61032 15.4697 4.46967C15.6103 4.32902 15.8011 4.25 16 4.25C16.1989 4.25 16.3897 4.32902 16.5303 4.46967C16.671 4.61032 16.75 4.80109 16.75 5V19C16.7474 19.1981 16.6676 19.3874 16.5275 19.5275C16.3874 19.6676 16.1981 19.7474 16 19.75Z" fill="#696E79"/>
</svg>
