<svg width="18" height="16" viewBox="0 0 18 16" fill="none" xmlns="http://www.w3.org/2000/svg">
<path d="M1.44225 8.07314C0.96075 8.448 0.63225 8.76914 0.457875 9.04571C0.2835 9.32 0.17775 9.61486 0.144 9.92343H3.15788V9.06857H1.58963C1.68075 8.976 1.76063 8.896 1.82812 8.83886C1.89787 8.78171 2.03288 8.67657 2.23425 8.53029C2.57512 8.28114 2.80912 8.05029 2.9385 7.84C3.069 7.62743 3.13312 7.41143 3.13312 7.17943C3.13619 6.9714 3.07695 6.76733 2.96325 6.59429C2.85162 6.41928 2.68985 6.28326 2.49975 6.20457C2.304 6.11771 2.02837 6.07771 1.67512 6.07771C1.33762 6.07771 1.071 6.12114 0.880875 6.208C0.697756 6.28871 0.542601 6.42325 0.435375 6.59429C0.329625 6.75772 0.2565 6.98971 0.217125 7.28457L1.22287 7.37143C1.251 7.15657 1.30613 7.00914 1.38825 6.92114C1.42943 6.87979 1.47855 6.84749 1.53255 6.82625C1.58655 6.80502 1.64427 6.7953 1.70213 6.79771C1.82588 6.79771 1.92712 6.83771 2.00812 6.92114C2.04757 6.95891 2.07877 7.00467 2.09971 7.05546C2.12064 7.10626 2.13083 7.16095 2.12963 7.216C2.12268 7.33878 2.08044 7.4568 2.00812 7.55543C1.92487 7.672 1.737 7.84571 1.44225 8.07314ZM1.50412 15.3714C1.38699 15.3751 1.27309 15.3321 1.18687 15.2514C1.10362 15.1714 1.04288 15.0286 1.00463 14.8194L0 14.9543C0.066375 15.1874 0.15975 15.3794 0.282375 15.5326C0.405 15.6846 0.561375 15.8011 0.7515 15.8823C0.9405 15.9611 1.20038 16 1.53 16C1.8675 16 2.13862 15.9463 2.34562 15.84C2.54626 15.7382 2.71237 15.5778 2.82262 15.3794C2.93287 15.1794 2.98688 14.9749 2.98688 14.7577C2.991 14.602 2.95698 14.4476 2.88787 14.3086C2.82142 14.1862 2.72491 14.0835 2.60775 14.0103C2.50738 13.9521 2.39889 13.9097 2.286 13.8846C2.44097 13.8047 2.57425 13.6873 2.67412 13.5429C2.75911 13.4134 2.80344 13.2608 2.80125 13.1051C2.80333 12.9746 2.77592 12.8453 2.72111 12.7273C2.66631 12.6092 2.58558 12.5054 2.48513 12.424C2.27475 12.2423 1.93388 12.152 1.4625 12.152C1.05188 12.152 0.7335 12.2343 0.509625 12.4023C0.284625 12.5657 0.133875 12.8057 0.0551248 13.1177L1.00463 13.2903C1.0305 13.1051 1.08 12.9771 1.15425 12.904C1.2285 12.8309 1.32413 12.792 1.44337 12.792C1.49297 12.7897 1.54251 12.7975 1.58908 12.815C1.63565 12.8324 1.6783 12.8592 1.7145 12.8937C1.78088 12.9623 1.81238 13.0526 1.81238 13.1657C1.81238 13.2846 1.76962 13.3863 1.68075 13.4743C1.59187 13.5623 1.48163 13.6023 1.35113 13.6023C1.3074 13.6009 1.26381 13.5967 1.22063 13.5897L1.17 14.3314C1.27516 14.2958 1.38447 14.2743 1.49513 14.2674C1.64363 14.2674 1.76175 14.3143 1.84725 14.4114C1.93388 14.5051 1.97662 14.6389 1.97662 14.8137C1.97662 14.9806 1.93163 15.1177 1.84275 15.2183C1.80053 15.2671 1.74841 15.3061 1.68995 15.3325C1.6315 15.359 1.5681 15.3722 1.50412 15.3714ZM2.57062 3.848V0H1.73925C1.63762 0.230559 1.48611 0.434865 1.296 0.597714C1.107 0.76 0.8415 0.897143 0.4995 1.01486V1.87657C0.88408 1.7688 1.24284 1.58211 1.55363 1.328V3.84914H2.57062V3.848ZM5.625 1.14286H18V3.42857H5.625V1.14286ZM5.625 6.85714H18V9.14286H5.625V6.85714ZM5.625 12.5714H18V14.8571H5.625V12.5714Z" fill="#7A7B7C"/>
</svg>
