<svg width="24" height="24" viewBox="0 0 24 24" fill="none" xmlns="http://www.w3.org/2000/svg">
<path d="M19.0001 21V3.00004C18.9995 2.81779 18.9493 2.63916 18.8547 2.48336C18.7602 2.32756 18.6249 2.20049 18.4636 2.11584C18.3022 2.03119 18.1207 1.99215 17.9388 2.00293C17.7569 2.01372 17.5814 2.07391 17.4311 2.17704L4.43111 11.177C3.89211 11.55 3.89211 12.448 4.43111 12.822L17.4311 21.822C17.581 21.9262 17.7567 21.9873 17.9389 21.9987C18.1211 22.01 18.303 21.9713 18.4647 21.8865C18.6264 21.8018 18.7619 21.6744 18.8562 21.5181C18.9506 21.3618 19.0004 21.1826 19.0001 21Z" fill="#EEEDED"/>
</svg>
