<svg width="16" height="16" viewBox="0 0 16 16" fill="none" xmlns="http://www.w3.org/2000/svg">
<rect width="16" height="16" rx="3" fill="#03E09E"/>
<path fill-rule="evenodd" clip-rule="evenodd" d="M4 4.26659C4 4.01905 4.09833 3.78165 4.27337 3.60662C4.4484 3.43158 4.6858 3.33325 4.93333 3.33325H10.5333C10.7809 3.33325 11.0183 3.43158 11.1933 3.60662C11.3683 3.78165 11.4667 4.01905 11.4667 4.26659V11.7333C11.4667 11.9808 11.3683 12.2182 11.1933 12.3932C11.0183 12.5683 10.7809 12.6666 10.5333 12.6666H4.93333C4.6858 12.6666 4.4484 12.5683 4.27337 12.3932C4.09833 12.2182 4 11.9808 4 11.7333V4.26659ZM10.5333 4.26659H4.93333V11.7333H10.5333V4.26659ZM5.86667 6.59992C5.86667 6.47615 5.91583 6.35745 6.00335 6.26994C6.09087 6.18242 6.20957 6.13325 6.33333 6.13325H9.13333C9.2571 6.13325 9.3758 6.18242 9.46332 6.26994C9.55083 6.35745 9.6 6.47615 9.6 6.59992C9.6 6.72369 9.55083 6.84238 9.46332 6.9299C9.3758 7.01742 9.2571 7.06659 9.13333 7.06659H6.33333C6.20957 7.06659 6.09087 7.01742 6.00335 6.9299C5.91583 6.84238 5.86667 6.72369 5.86667 6.59992ZM6.33333 8.46659C6.20957 8.46659 6.09087 8.51575 6.00335 8.60327C5.91583 8.69079 5.86667 8.80948 5.86667 8.93325C5.86667 9.05702 5.91583 9.17572 6.00335 9.26323C6.09087 9.35075 6.20957 9.39992 6.33333 9.39992H7.73333C7.8571 9.39992 7.9758 9.35075 8.06332 9.26323C8.15083 9.17572 8.2 9.05702 8.2 8.93325C8.2 8.80948 8.15083 8.69079 8.06332 8.60327C7.9758 8.51575 7.8571 8.46659 7.73333 8.46659H6.33333Z" fill="white"/>
</svg>
