<svg width="16" height="16" viewBox="0 0 16 16" fill="none" xmlns="http://www.w3.org/2000/svg">
<rect width="16" height="16" rx="3" fill="#FFDF36"/>
<path fill-rule="evenodd" clip-rule="evenodd" d="M4 4.26683C4 4.01929 4.09833 3.7819 4.27337 3.60686C4.4484 3.43183 4.6858 3.3335 4.93333 3.3335H10.5333C10.7809 3.3335 11.0183 3.43183 11.1933 3.60686C11.3683 3.7819 11.4667 4.01929 11.4667 4.26683V11.7335C11.4667 11.981 11.3683 12.2184 11.1933 12.3935C11.0183 12.5685 10.7809 12.6668 10.5333 12.6668H4.93333C4.6858 12.6668 4.4484 12.5685 4.27337 12.3935C4.09833 12.2184 4 11.981 4 11.7335V4.26683ZM10.5333 4.26683H4.93333V11.7335H10.5333V4.26683ZM5.86667 6.60016C5.86667 6.47639 5.91583 6.3577 6.00335 6.27018C6.09087 6.18266 6.20957 6.1335 6.33333 6.1335H9.13333C9.2571 6.1335 9.3758 6.18266 9.46332 6.27018C9.55083 6.3577 9.6 6.47639 9.6 6.60016C9.6 6.72393 9.55083 6.84263 9.46332 6.93015C9.3758 7.01766 9.2571 7.06683 9.13333 7.06683H6.33333C6.20957 7.06683 6.09087 7.01766 6.00335 6.93015C5.91583 6.84263 5.86667 6.72393 5.86667 6.60016ZM6.33333 8.46683C6.20957 8.46683 6.09087 8.516 6.00335 8.60351C5.91583 8.69103 5.86667 8.80973 5.86667 8.9335C5.86667 9.05726 5.91583 9.17596 6.00335 9.26348C6.09087 9.351 6.20957 9.40016 6.33333 9.40016H7.73333C7.8571 9.40016 7.9758 9.351 8.06332 9.26348C8.15083 9.17596 8.2 9.05726 8.2 8.9335C8.2 8.80973 8.15083 8.69103 8.06332 8.60351C7.9758 8.516 7.8571 8.46683 7.73333 8.46683H6.33333Z" fill="#121212"/>
</svg>
