<svg width="16" height="17" viewBox="0 0 16 17" fill="none" xmlns="http://www.w3.org/2000/svg">
<rect y="0.5" width="16" height="16" rx="3" fill="#AD7EFB"/>
<path fill-rule="evenodd" clip-rule="evenodd" d="M4 4.76683C4 4.51929 4.09833 4.2819 4.27337 4.10686C4.4484 3.93183 4.6858 3.8335 4.93333 3.8335H10.5333C10.7809 3.8335 11.0183 3.93183 11.1933 4.10686C11.3683 4.2819 11.4667 4.51929 11.4667 4.76683V12.2335C11.4667 12.481 11.3683 12.7184 11.1933 12.8935C11.0183 13.0685 10.7809 13.1668 10.5333 13.1668H4.93333C4.6858 13.1668 4.4484 13.0685 4.27337 12.8935C4.09833 12.7184 4 12.481 4 12.2335V4.76683ZM10.5333 4.76683H4.93333V12.2335H10.5333V4.76683ZM5.86667 7.10016C5.86667 6.97639 5.91583 6.8577 6.00335 6.77018C6.09087 6.68266 6.20957 6.6335 6.33333 6.6335H9.13333C9.2571 6.6335 9.3758 6.68266 9.46332 6.77018C9.55083 6.8577 9.6 6.97639 9.6 7.10016C9.6 7.22393 9.55083 7.34263 9.46332 7.43015C9.3758 7.51766 9.2571 7.56683 9.13333 7.56683H6.33333C6.20957 7.56683 6.09087 7.51766 6.00335 7.43015C5.91583 7.34263 5.86667 7.22393 5.86667 7.10016ZM6.33333 8.96683C6.20957 8.96683 6.09087 9.016 6.00335 9.10351C5.91583 9.19103 5.86667 9.30973 5.86667 9.4335C5.86667 9.55726 5.91583 9.67596 6.00335 9.76348C6.09087 9.851 6.20957 9.90016 6.33333 9.90016H7.73333C7.8571 9.90016 7.9758 9.851 8.06332 9.76348C8.15083 9.67596 8.2 9.55726 8.2 9.4335C8.2 9.30973 8.15083 9.19103 8.06332 9.10351C7.9758 9.016 7.8571 8.96683 7.73333 8.96683H6.33333Z" fill="white"/>
</svg>
