<svg width="14" height="8" viewBox="0 0 14 8" fill="none" xmlns="http://www.w3.org/2000/svg">
<path d="M7.43614 0.188938L13.8336 6.97775C13.9404 7.09102 14 7.24152 14 7.39802C14 7.55451 13.9404 7.70501 13.8336 7.81828L13.8264 7.82559C13.7746 7.88069 13.7123 7.92457 13.6432 7.95455C13.5742 7.98454 13.4998 8 13.4246 8C13.3494 8 13.275 7.98454 13.206 7.95455C13.1369 7.92457 13.0746 7.88069 13.0228 7.82559L6.9988 1.43268L0.977209 7.82559C0.925435 7.88069 0.863115 7.92457 0.794039 7.95456C0.724965 7.98454 0.65058 8 0.575409 8C0.500237 8 0.425852 7.98454 0.356777 7.95456C0.287702 7.92457 0.225383 7.88069 0.173608 7.82559L0.166379 7.81828C0.0595796 7.70501 6.60437e-07 7.55451 6.46755e-07 7.39802C6.33074e-07 7.24152 0.0595795 7.09102 0.166379 6.97775L6.56386 0.188938C6.62012 0.129233 6.68779 0.0817014 6.76276 0.0492242C6.83773 0.0167471 6.91844 6.1909e-07 7 6.11959e-07C7.08156 6.04829e-07 7.16227 0.0167471 7.23724 0.0492242C7.31221 0.0817013 7.37988 0.129233 7.43614 0.188938Z" fill="#121F2C"/>
</svg>
