<svg width="30" height="30" viewBox="0 0 30 30" fill="none" xmlns="http://www.w3.org/2000/svg">
<rect x="1" y="1" width="28" height="28" rx="14" stroke="#FEF151" stroke-width="2"/>
<path d="M8.875 21.1249H9.83575L19.1965 11.7636L18.2358 10.8028L8.875 20.1641V21.1249ZM8 22V19.7949L19.5325 8.25114C19.6223 8.17122 19.7215 8.10938 19.83 8.06563C19.9385 8.02188 20.0514 8 20.1686 8C20.2865 8 20.4002 8.01838 20.5099 8.05513C20.6207 8.09246 20.7228 8.15955 20.8161 8.25639L21.7489 9.19445C21.8457 9.28779 21.9116 9.38988 21.9466 9.50072C21.9822 9.61214 22 9.72357 22 9.83499C22 9.95341 21.9799 10.0669 21.9396 10.1754C21.9 10.2833 21.8364 10.3822 21.7489 10.472L10.205 22H8ZM18.7074 11.2911L18.2358 10.8028L19.1965 11.7636L18.7074 11.2911Z" fill="#FEF151"/>
</svg>
