<svg width="25" height="25" viewBox="0 0 25 25" fill="none" xmlns="http://www.w3.org/2000/svg">
<path fill-rule="evenodd" clip-rule="evenodd" d="M11.1251 0.5C9.43081 0.500144 7.76115 0.905455 6.25539 1.68212C4.74963 2.45878 3.45144 3.58427 2.46912 4.96469C1.4868 6.34511 0.848835 7.94043 0.608458 9.61755C0.368081 11.2947 0.532259 13.005 1.0873 14.6057C1.64233 16.2065 2.57213 17.6513 3.79912 18.8197C5.02611 19.988 6.5147 20.846 8.14071 21.322C9.76673 21.798 11.483 21.8783 13.1463 21.5561C14.8097 21.234 16.3719 20.5187 17.7026 19.47L22.2676 24.035C22.5033 24.2627 22.8191 24.3887 23.1468 24.3858C23.4746 24.383 23.7881 24.2515 24.0198 24.0198C24.2516 23.788 24.3831 23.4745 24.3859 23.1468C24.3888 22.819 24.2628 22.5033 24.0351 22.2675L19.4701 17.7025C20.7051 16.1358 21.474 14.253 21.6889 12.2697C21.9039 10.2863 21.5561 8.28253 20.6854 6.48762C19.8146 4.69271 18.4562 3.1792 16.7654 2.12029C15.0747 1.06138 13.12 0.499866 11.1251 0.5ZM3.00007 11.125C3.00007 8.97012 3.8561 6.90349 5.37983 5.37976C6.90356 3.85602 8.97019 3 11.1251 3C13.28 3 15.3466 3.85602 16.8703 5.37976C18.394 6.90349 19.2501 8.97012 19.2501 11.125C19.2501 13.2799 18.394 15.3465 16.8703 16.8702C15.3466 18.394 13.28 19.25 11.1251 19.25C8.97019 19.25 6.90356 18.394 5.37983 16.8702C3.8561 15.3465 3.00007 13.2799 3.00007 11.125Z" fill="#ED4C5C"/>
</svg>
