<svg width="24" height="24" viewBox="0 0 24 24" fill="none" xmlns="http://www.w3.org/2000/svg">
<path d="M4.8 21H19.2C20.1941 21 21 20.1941 21 19.2V4.8C21 3.8059 20.1941 3 19.2 3H4.8C3.8059 3 3 3.8059 3 4.8V19.2C3 20.1941 3.8059 21 4.8 21Z" fill="#185ABD"/>
<path d="M9.26764 14.5661C9.29597 14.8034 9.31436 15.0102 9.32319 15.1869H9.35584C9.36896 15.0194 9.39394 14.8174 9.43089 14.5801C9.46783 14.3433 9.50387 14.1433 9.53876 13.9806L11.0533 7H13.012L14.5789 13.876C14.6574 14.2155 14.7226 14.6475 14.7748 15.1729H14.8008C14.8226 14.8102 14.877 14.3918 14.9641 13.9177L16.2177 7H18L15.8064 17H13.7236L12.2285 10.3753C12.185 10.1845 12.136 9.93605 12.0816 9.62905C12.0272 9.32246 11.9934 9.09923 11.9805 8.95977H11.9544C11.937 9.1225 11.9032 9.36414 11.8531 9.68477C11.803 10.0058 11.7627 10.2426 11.7323 10.3961L10.3286 17H8.21327L6 7H7.81496L9.17966 13.9946C9.21004 14.1385 9.23931 14.3293 9.26764 14.5661Z" fill="white"/>
</svg>
